<?xml version="1.0" encoding="utf-8"?>
<!-- Generator: Adobe Illustrator 21.1.0, SVG Export Plug-In . SVG Version: 6.00 Build 0)  -->
<svg version="1.1" id="Layer_1" xmlns="http://www.w3.org/2000/svg" xmlns:xlink="http://www.w3.org/1999/xlink" x="0px" y="0px"
	 viewBox="0 0 1190.6 1683.8" style="enable-background:new 0 0 1190.6 1683.8;" xml:space="preserve">
<style type="text/css">
	.st0{fill:#044B50;}
	.st1{fill:#FFFFFF;}
	.st2{fill:none;}
	.st3{font-family:'BaronNeue';}
	.st4{font-size:127px;}
	.st5{letter-spacing:-3;}
	.st6{font-family:'Questrial-Regular';}
	.st7{font-size:33px;}
	.st8{font-size:57px;}
	.st9{letter-spacing:-1;}
	.st10{font-size:26px;}
</style>
<path class="st0" d="M1053.2,1491H133.8c-4.2,0-7.5-3.4-7.5-7.5V135.1c0-4.2,3.4-7.5,7.5-7.5h919.5c4.2,0,7.5,3.4,7.5,7.5v1348.4
	C1060.7,1487.7,1057.4,1491,1053.2,1491z"/>
<g>
	<path class="st1" d="M593.5,501l-45.3,26.2v52.3l45.3,26.2l45.3-26.2v-52.3L593.5,501z M570.9,586.6c1.6-1.3,3.5-2,5.8-2
		c2.6,0,5,1,6.7,2.7c0.5,0.5,1.1,0.8,1.8,0.8c0.8,0,1.4-0.3,1.9-0.9c1.6-1.7,3.8-2.7,6.3-2.7c2.5,0,4.7,1,6.3,2.6
		c0.5,0.6,1.2,0.9,2,0.9c0.7,0,1.4-0.3,1.9-0.8c1.7-1.7,4.1-2.8,6.7-2.8c2.2,0,4.2,0.8,5.8,2l-22.8,13.3L570.9,586.6z M633.7,576.3
		l-12.7,7.4c0,0,0,0,0,0c-2.4-2.7-5.9-4.4-9.8-4.4c-2.8,0-5.5,0.8-7.6,2.3c-0.4,0.4-1,0.6-1.6,0.6c-0.7,0-1.3-0.2-1.7-0.7
		c-1.2-0.9-2.6-1.5-4.1-1.9v-22.7h3.2c9.2,0,16.7-7.5,16.7-16.7c0-0.5-0.4-1-1-1h-4.9c-8.6,0-15.7,6.5-16.6,14.9h-0.1v-3.4
		c0-9.2-7.5-16.7-16.7-16.7c-0.5,0-1,0.4-1,1v4.9c0,8.7,6.6,15.8,15.1,16.6v23.2c-1.5,0.4-2.9,1.1-4.1,2c-0.4,0.4-1,0.6-1.6,0.6
		c-0.6,0-1.1-0.2-1.6-0.6c-2.1-1.5-4.7-2.3-7.5-2.3c-3.9,0-7.5,1.8-9.9,4.5c0,0-0.1,0.1-0.1,0.1l-12.9-7.5v-46l40.2-23.5l40.2,23.5
		V576.3z"/>
</g>
<g>
	<path class="st1" d="M711,126c0.1,0.1,0.1,0.2,0.2,0.3c15.2,17.5,38,28.6,63.2,28.6c18,0,35.2-5.1,48.9-14.7
		c2.7-2.3,6.5-3.6,10.4-3.6c4.2,0,8.1,1.6,11.1,4.2c7.8,5.7,16.9,10,26.7,12.3v146.5h-20.6c-59.6,0-107.8,48.3-107.8,107.8
		c0,3.4,2.8,6.2,6.2,6.2h31.3c55.5,0,101.2-41.9,107.2-95.9h0.7v21.7c0,59.6,48.3,107.9,107.8,107.9c3.4,0,6.2-2.8,6.2-6.2v-31.3
		c0-55.9-42.6-101.9-97.1-107.3V152.7c9.6-2.5,18.4-6.8,26.2-12.7c2.9-2.3,6.3-3.7,10.2-3.7c4,0,7.2,1.3,10.2,3.6
		c13.6,9.5,30.2,15.1,48.1,15.1c25,0,48.1-11.7,63.7-29c0.2-0.2,0.4-0.5,0.6-0.8"/>
</g>
<g>
	<path class="st1" d="M285.6,1491.8c0,0-0.1-0.1-0.1-0.1c-6.7-7.7-16.8-12.6-27.9-12.6c-7.9,0-15.5,2.3-21.5,6.5
		c-1.2,1-2.9,1.6-4.6,1.6c-1.9,0-3.6-0.7-4.9-1.8c-3.5-2.5-7.5-4.4-11.8-5.4v-64.6h9.1c26.3,0,47.5-21.3,47.5-47.5
		c0-1.5-1.2-2.7-2.7-2.7h-13.8c-24.5,0-44.6,18.5-47.2,42.3h-0.3v-9.6c0-26.3-21.3-47.5-47.5-47.5c-1.5,0-2.7,1.2-2.7,2.7v13.8
		c0,24.7,18.8,44.9,42.8,47.3v66c-4.2,1.1-8.1,3-11.5,5.6c-1.3,1-2.8,1.6-4.5,1.6c-1.8,0-3.2-0.6-4.5-1.6c-6-4.2-13.3-6.6-21.2-6.6
		c-11,0-21.2,5.1-28.1,12.8c-0.1,0.1-0.2,0.2-0.2,0.3"/>
</g>
<g>
	<path class="st1" d="M441.3,1491.8c0,0-0.1-0.1-0.1-0.1c-6.7-7.7-16.8-12.6-27.9-12.6c-7.9,0-15.5,2.3-21.5,6.5
		c-1.2,1-2.9,1.6-4.6,1.6c-1.9,0-3.6-0.7-4.9-1.8c-3.5-2.5-7.5-4.4-11.8-5.4v-64.6h9.1c26.3,0,47.5-21.3,47.5-47.5
		c0-1.5-1.2-2.7-2.7-2.7h-13.8c-24.5,0-44.6,18.5-47.2,42.3h-0.3v-9.6c0-26.3-21.3-47.5-47.5-47.5c-1.5,0-2.7,1.2-2.7,2.7v13.8
		c0,24.7,18.8,44.9,42.8,47.3v66c-4.2,1.1-8.1,3-11.5,5.6c-1.3,1-2.8,1.6-4.5,1.6c-1.8,0-3.2-0.6-4.5-1.6c-6-4.2-13.3-6.6-21.2-6.6
		c-11,0-21.2,5.1-28.1,12.8c-0.1,0.1-0.2,0.2-0.2,0.3"/>
</g>
<g>
	<path class="st1" d="M597.1,1491.8c0,0-0.1-0.1-0.1-0.1c-6.7-7.7-16.8-12.6-27.9-12.6c-7.9,0-15.5,2.3-21.5,6.5
		c-1.2,1-2.9,1.6-4.6,1.6c-1.9,0-3.6-0.7-4.9-1.8c-3.5-2.5-7.5-4.4-11.8-5.4v-64.6h9.1c26.3,0,47.5-21.3,47.5-47.5
		c0-1.5-1.2-2.7-2.7-2.7h-13.8c-24.5,0-44.6,18.5-47.2,42.3h-0.3v-9.6c0-26.3-21.3-47.5-47.5-47.5c-1.5,0-2.7,1.2-2.7,2.7v13.8
		c0,24.7,18.8,44.9,42.8,47.3v66c-4.2,1.1-8.1,3-11.5,5.6c-1.3,1-2.8,1.6-4.5,1.6c-1.8,0-3.2-0.6-4.5-1.6c-6-4.2-13.3-6.6-21.2-6.6
		c-11,0-21.2,5.1-28.1,12.8c-0.1,0.1-0.2,0.2-0.2,0.3"/>
</g>
<g>
	<path class="st1" d="M752.8,1491.8c0,0-0.1-0.1-0.1-0.1c-6.7-7.7-16.8-12.6-27.9-12.6c-7.9,0-15.5,2.3-21.5,6.5
		c-1.2,1-2.9,1.6-4.6,1.6c-1.9,0-3.6-0.7-4.9-1.8c-3.5-2.5-7.5-4.4-11.8-5.4v-64.6h9.1c26.3,0,47.5-21.3,47.5-47.5
		c0-1.5-1.2-2.7-2.7-2.7h-13.8c-24.5,0-44.6,18.5-47.2,42.3h-0.3v-9.6c0-26.3-21.3-47.5-47.5-47.5c-1.5,0-2.7,1.2-2.7,2.7v13.8
		c0,24.7,18.8,44.9,42.8,47.3v66c-4.2,1.1-8.1,3-11.5,5.6c-1.3,1-2.8,1.6-4.5,1.6c-1.8,0-3.2-0.6-4.5-1.6c-6-4.2-13.3-6.6-21.2-6.6
		c-11,0-21.2,5.1-28.1,12.8c-0.1,0.1-0.2,0.2-0.2,0.3"/>
</g>
<g>
	<path class="st1" d="M908.6,1491.8c0,0-0.1-0.1-0.1-0.1c-6.7-7.7-16.8-12.6-27.9-12.6c-7.9,0-15.5,2.3-21.5,6.5
		c-1.2,1-2.9,1.6-4.6,1.6c-1.9,0-3.6-0.7-4.9-1.8c-3.5-2.5-7.5-4.4-11.8-5.4v-64.6h9.1c26.3,0,47.5-21.3,47.5-47.5
		c0-1.5-1.2-2.7-2.7-2.7h-13.8c-24.5,0-44.6,18.5-47.2,42.3h-0.3v-9.6c0-26.3-21.3-47.5-47.5-47.5c-1.5,0-2.7,1.2-2.7,2.7v13.8
		c0,24.7,18.8,44.9,42.8,47.3v66c-4.2,1.1-8.1,3-11.5,5.6c-1.3,1-2.8,1.6-4.5,1.6c-1.8,0-3.2-0.6-4.5-1.6c-6-4.2-13.3-6.6-21.2-6.6
		c-11,0-21.2,5.1-28.1,12.8c-0.1,0.1-0.2,0.2-0.2,0.3"/>
</g>
<g>
	<path class="st1" d="M1064.3,1491.8c0,0-0.1-0.1-0.1-0.1c-6.7-7.7-16.8-12.6-27.9-12.6c-7.9,0-15.5,2.3-21.5,6.5
		c-1.2,1-2.9,1.6-4.6,1.6c-1.9,0-3.6-0.7-4.9-1.8c-3.5-2.5-7.5-4.4-11.8-5.4v-64.6h9.1c26.3,0,47.5-21.3,47.5-47.5
		c0-1.5-1.2-2.7-2.7-2.7h-13.8c-24.5,0-44.6,18.5-47.2,42.3h-0.3v-9.6c0-26.3-21.3-47.5-47.5-47.5c-1.5,0-2.7,1.2-2.7,2.7v13.8
		c0,24.7,18.8,44.9,42.8,47.3v66c-4.2,1.1-8.1,3-11.5,5.6c-1.3,1-2.8,1.6-4.5,1.6c-1.8,0-3.2-0.6-4.5-1.6c-6-4.2-13.3-6.6-21.2-6.6
		c-11,0-21.2,5.1-28.1,12.8c-0.1,0.1-0.2,0.2-0.2,0.3"/>
</g>
<g>
	<path class="st1" d="M510.7,123.5c0,0.1,0.1,0.1,0.1,0.2c8.8,10.1,21.8,16.4,36.3,16.4c10.3,0,20.2-3,28.1-8.5
		c1.6-1.3,3.7-2.1,6-2.1c2.4,0,4.7,0.9,6.4,2.4c4.5,3.3,9.7,5.7,15.4,7.1v84.2h-11.8c-34.2,0-62,27.7-62,62c0,2,1.6,3.6,3.6,3.6h18
		c31.9,0,58.2-24.1,61.6-55.1h0.4v12.5c0,34.2,27.8,62,62,62c2,0,3.6-1.6,3.6-3.6v-18c0-32.1-24.5-58.6-55.8-61.7v-86.1
		c5.5-1.4,10.6-3.9,15-7.3c1.6-1.3,3.6-2.1,5.9-2.1c2.3,0,4.1,0.7,5.9,2.1c7.8,5.5,17.4,8.7,27.6,8.7c14.4,0,27.7-6.7,36.6-16.7
		c0.1-0.1,0.2-0.3,0.3-0.4"/>
</g>
<g>
	<path class="st1" d="M207.7,123.8c0.1,0.1,0.1,0.2,0.2,0.3c13.1,15,32.6,24.5,54.2,24.5c15.4,0,30.2-4.4,41.9-12.6
		c2.3-1.9,5.5-3.1,8.9-3.1c3.6,0,7,1.4,9.5,3.6c6.7,4.9,14.5,8.6,22.9,10.5v125.7h-17.7c-51.1,0-92.5,41.4-92.5,92.5
		c0,2.9,2.4,5.3,5.3,5.3h26.9c47.6,0,86.8-36,91.9-82.2h0.6v18.6c0,51.1,41.4,92.5,92.5,92.5c2.9,0,5.3-2.4,5.3-5.3v-26.9
		c0-48-36.5-87.4-83.3-92V146.7c8.2-2.1,15.8-5.9,22.5-10.9c2.5-2,5.4-3.2,8.8-3.2c3.4,0,6.2,1.1,8.8,3.1
		c11.7,8.2,25.9,12.9,41.2,12.9c21.5,0,41.3-10,54.6-24.9c0.2-0.2,0.3-0.4,0.5-0.6"/>
</g>
<g>
	<path class="st1" d="M129.8,123.2C129.8,123.3,129.8,123.3,129.8,123.2c3.4,3.9,8.4,6.4,14,6.4c4,0,7.8-1.1,10.8-3.2
		c0.6-0.5,1.4-0.8,2.3-0.8c0.9,0,1.8,0.3,2.4,0.9c1.7,1.3,3.7,2.2,5.9,2.7v32.3h-4.5c-13.1,0-23.8,10.6-23.8,23.8
		c0,0.8,0.6,1.4,1.4,1.4h6.9c12.2,0,22.3-9.2,23.6-21.1h0.1v4.8c0,13.1,10.6,23.8,23.8,23.8c0.8,0,1.4-0.6,1.4-1.4v-6.9
		c0-12.3-9.4-22.5-21.4-23.7v-33c2.1-0.5,4.1-1.5,5.8-2.8c0.6-0.5,1.4-0.8,2.3-0.8c0.9,0,1.6,0.3,2.3,0.8c3,2.1,6.7,3.3,10.6,3.3
		c5.5,0,10.6-2.6,14-6.4c0-0.1,0.1-0.1,0.1-0.2"/>
</g>
<g>
	<rect x="184.3" y="636.7" class="st2" width="818.4" height="294"/>
	<text transform="matrix(1 0 0 1 204.3616 744.625)"><tspan x="0" y="0" class="st1 st3 st4 st5">agricultura </tspan><tspan x="154.4" y="127" class="st1 st3 st4 st5">Aberta?</tspan></text>
	<rect x="307" y="904" class="st2" width="573" height="87.3"/>
	<text transform="matrix(1 0 0 1 360.9875 931.468)"><tspan x="0" y="0" class="st1 st6 st7">Sprint de Desenvolvimento </tspan><tspan x="-42.9" y="45" class="st1 st6 st7">Plaforma Repositório Farmlabs</tspan></text>
	<rect x="184.3" y="1007.2" class="st2" width="818.4" height="65.3"/>
	<text transform="matrix(1 0 0 1 312.5941 1055.6564)" class="st1 st3 st8 st9">11 e 12 de novembro</text>
	<rect x="307" y="1088.4" class="st2" width="573" height="43.6"/>
	<text transform="matrix(1 0 0 1 371.2404 1110.0022)" class="st1 st6 st10">CENTRO DE INOVAÇÃO DA MOURARIA</text>
	<rect x="184.3" y="1133.6" class="st2" width="818.4" height="65.3"/>
	<text transform="matrix(1 0 0 1 220.8821 1182.0674)" class="st1 st3 st8 st9">open call - FArmlabs.org</text>
</g>
</svg>
