<?xml version="1.0" encoding="utf-8"?>
<!-- Generator: Adobe Illustrator 21.1.0, SVG Export Plug-In . SVG Version: 6.00 Build 0)  -->
<svg version="1.1" id="Layer_1" xmlns="http://www.w3.org/2000/svg" xmlns:xlink="http://www.w3.org/1999/xlink" x="0px" y="0px"
	 viewBox="0 0 1190.6 1683.8" style="enable-background:new 0 0 1190.6 1683.8;" xml:space="preserve">
<style type="text/css">
	.st0{fill:#044B50;}
	.st1{fill:#FFFFFF;}
</style>
<path class="st0" d="M1053.2,1491H133.8c-4.2,0-7.5-3.4-7.5-7.5V135.1c0-4.2,3.4-7.5,7.5-7.5h919.5c4.2,0,7.5,3.4,7.5,7.5v1348.4
	C1060.7,1487.7,1057.4,1491,1053.2,1491z"/>
<g>
	<path class="st1" d="M593.5,501l-45.3,26.2v52.3l45.3,26.2l45.3-26.2v-52.3L593.5,501z M570.9,586.6c1.6-1.3,3.5-2,5.8-2
		c2.6,0,5,1,6.7,2.7c0.5,0.5,1.1,0.8,1.8,0.8c0.8,0,1.4-0.3,1.9-0.9c1.6-1.7,3.8-2.7,6.3-2.7c2.5,0,4.7,1,6.3,2.6
		c0.5,0.6,1.2,0.9,2,0.9c0.7,0,1.4-0.3,1.9-0.8c1.7-1.7,4.1-2.8,6.7-2.8c2.2,0,4.2,0.8,5.8,2l-22.8,13.3L570.9,586.6z M633.7,576.3
		l-12.7,7.4c0,0,0,0,0,0c-2.4-2.7-5.9-4.4-9.8-4.4c-2.8,0-5.5,0.8-7.6,2.3c-0.4,0.4-1,0.6-1.6,0.6c-0.7,0-1.3-0.2-1.7-0.7
		c-1.2-0.9-2.6-1.5-4.1-1.9v-22.7h3.2c9.2,0,16.7-7.5,16.7-16.7c0-0.5-0.4-1-1-1h-4.9c-8.6,0-15.7,6.5-16.6,14.9h-0.1v-3.4
		c0-9.2-7.5-16.7-16.7-16.7c-0.5,0-1,0.4-1,1v4.9c0,8.7,6.6,15.8,15.1,16.6v23.2c-1.5,0.4-2.9,1.1-4.1,2c-0.4,0.4-1,0.6-1.6,0.6
		c-0.6,0-1.1-0.2-1.6-0.6c-2.1-1.5-4.7-2.3-7.5-2.3c-3.9,0-7.5,1.8-9.9,4.5c0,0-0.1,0.1-0.1,0.1l-12.9-7.5v-46l40.2-23.5l40.2,23.5
		V576.3z"/>
</g>
<g>
	<path class="st1" d="M711,126c0.1,0.1,0.1,0.2,0.2,0.3c15.2,17.5,38,28.6,63.2,28.6c18,0,35.2-5.1,48.9-14.7
		c2.7-2.3,6.5-3.6,10.4-3.6c4.2,0,8.1,1.6,11.1,4.2c7.8,5.7,16.9,10,26.7,12.3v146.5h-20.6c-59.6,0-107.8,48.3-107.8,107.8
		c0,3.4,2.8,6.2,6.2,6.2h31.3c55.5,0,101.2-41.9,107.2-95.9h0.7v21.7c0,59.6,48.3,107.9,107.8,107.9c3.4,0,6.2-2.8,6.2-6.2v-31.3
		c0-55.9-42.6-101.9-97.1-107.3V152.7c9.6-2.5,18.4-6.8,26.2-12.7c2.9-2.3,6.3-3.7,10.2-3.7c4,0,7.2,1.3,10.2,3.6
		c13.6,9.5,30.2,15.1,48.1,15.1c25,0,48.1-11.7,63.7-29c0.2-0.2,0.4-0.5,0.6-0.8"/>
</g>
<g>
	<path class="st1" d="M285.6,1491.8c0,0-0.1-0.1-0.1-0.1c-6.7-7.7-16.8-12.6-27.9-12.6c-7.9,0-15.5,2.3-21.5,6.5
		c-1.2,1-2.9,1.6-4.6,1.6c-1.9,0-3.6-0.7-4.9-1.8c-3.5-2.5-7.5-4.4-11.8-5.4v-64.6h9.1c26.3,0,47.5-21.3,47.5-47.5
		c0-1.5-1.2-2.7-2.7-2.7h-13.8c-24.5,0-44.6,18.5-47.2,42.3h-0.3v-9.6c0-26.3-21.3-47.5-47.5-47.5c-1.5,0-2.7,1.2-2.7,2.7v13.8
		c0,24.7,18.8,44.9,42.8,47.3v66c-4.2,1.1-8.1,3-11.5,5.6c-1.3,1-2.8,1.6-4.5,1.6c-1.8,0-3.2-0.6-4.5-1.6c-6-4.2-13.3-6.6-21.2-6.6
		c-11,0-21.2,5.1-28.1,12.8c-0.1,0.1-0.2,0.2-0.2,0.3"/>
</g>
<g>
	<path class="st1" d="M441.3,1491.8c0,0-0.1-0.1-0.1-0.1c-6.7-7.7-16.8-12.6-27.9-12.6c-7.9,0-15.5,2.3-21.5,6.5
		c-1.2,1-2.9,1.6-4.6,1.6c-1.9,0-3.6-0.7-4.9-1.8c-3.5-2.5-7.5-4.4-11.8-5.4v-64.6h9.1c26.3,0,47.5-21.3,47.5-47.5
		c0-1.5-1.2-2.7-2.7-2.7h-13.8c-24.5,0-44.6,18.5-47.2,42.3h-0.3v-9.6c0-26.3-21.3-47.5-47.5-47.5c-1.5,0-2.7,1.2-2.7,2.7v13.8
		c0,24.7,18.8,44.9,42.8,47.3v66c-4.2,1.1-8.1,3-11.5,5.6c-1.3,1-2.8,1.6-4.5,1.6c-1.8,0-3.2-0.6-4.5-1.6c-6-4.2-13.3-6.6-21.2-6.6
		c-11,0-21.2,5.1-28.1,12.8c-0.1,0.1-0.2,0.2-0.2,0.3"/>
</g>
<g>
	<path class="st1" d="M597.1,1491.8c0,0-0.1-0.1-0.1-0.1c-6.7-7.7-16.8-12.6-27.9-12.6c-7.9,0-15.5,2.3-21.5,6.5
		c-1.2,1-2.9,1.6-4.6,1.6c-1.9,0-3.6-0.7-4.9-1.8c-3.5-2.5-7.5-4.4-11.8-5.4v-64.6h9.1c26.3,0,47.5-21.3,47.5-47.5
		c0-1.5-1.2-2.7-2.7-2.7h-13.8c-24.5,0-44.6,18.5-47.2,42.3h-0.3v-9.6c0-26.3-21.3-47.5-47.5-47.5c-1.5,0-2.7,1.2-2.7,2.7v13.8
		c0,24.7,18.8,44.9,42.8,47.3v66c-4.2,1.1-8.1,3-11.5,5.6c-1.3,1-2.8,1.6-4.5,1.6c-1.8,0-3.2-0.6-4.5-1.6c-6-4.2-13.3-6.6-21.2-6.6
		c-11,0-21.2,5.1-28.1,12.8c-0.1,0.1-0.2,0.2-0.2,0.3"/>
</g>
<g>
	<path class="st1" d="M752.8,1491.8c0,0-0.1-0.1-0.1-0.1c-6.7-7.7-16.8-12.6-27.9-12.6c-7.9,0-15.5,2.3-21.5,6.5
		c-1.2,1-2.9,1.6-4.6,1.6c-1.9,0-3.6-0.7-4.9-1.8c-3.5-2.5-7.5-4.4-11.8-5.4v-64.6h9.1c26.3,0,47.5-21.3,47.5-47.5
		c0-1.5-1.2-2.7-2.7-2.7h-13.8c-24.5,0-44.6,18.5-47.2,42.3h-0.3v-9.6c0-26.3-21.3-47.5-47.5-47.5c-1.5,0-2.7,1.2-2.7,2.7v13.8
		c0,24.7,18.8,44.9,42.8,47.3v66c-4.2,1.1-8.1,3-11.5,5.6c-1.3,1-2.8,1.6-4.5,1.6c-1.8,0-3.2-0.6-4.5-1.6c-6-4.2-13.3-6.6-21.2-6.6
		c-11,0-21.2,5.1-28.1,12.8c-0.1,0.1-0.2,0.2-0.2,0.3"/>
</g>
<g>
	<path class="st1" d="M908.6,1491.8c0,0-0.1-0.1-0.1-0.1c-6.7-7.7-16.8-12.6-27.9-12.6c-7.9,0-15.5,2.3-21.5,6.5
		c-1.2,1-2.9,1.6-4.6,1.6c-1.9,0-3.6-0.7-4.9-1.8c-3.5-2.5-7.5-4.4-11.8-5.4v-64.6h9.1c26.3,0,47.5-21.3,47.5-47.5
		c0-1.5-1.2-2.7-2.7-2.7h-13.8c-24.5,0-44.6,18.5-47.2,42.3h-0.3v-9.6c0-26.3-21.3-47.5-47.5-47.5c-1.5,0-2.7,1.2-2.7,2.7v13.8
		c0,24.7,18.8,44.9,42.8,47.3v66c-4.2,1.1-8.1,3-11.5,5.6c-1.3,1-2.8,1.6-4.5,1.6c-1.8,0-3.2-0.6-4.5-1.6c-6-4.2-13.3-6.6-21.2-6.6
		c-11,0-21.2,5.1-28.1,12.8c-0.1,0.1-0.2,0.2-0.2,0.3"/>
</g>
<g>
	<path class="st1" d="M1064.3,1491.8c0,0-0.1-0.1-0.1-0.1c-6.7-7.7-16.8-12.6-27.9-12.6c-7.9,0-15.5,2.3-21.5,6.5
		c-1.2,1-2.9,1.6-4.6,1.6c-1.9,0-3.6-0.7-4.9-1.8c-3.5-2.5-7.5-4.4-11.8-5.4v-64.6h9.1c26.3,0,47.5-21.3,47.5-47.5
		c0-1.5-1.2-2.7-2.7-2.7h-13.8c-24.5,0-44.6,18.5-47.2,42.3h-0.3v-9.6c0-26.3-21.3-47.5-47.5-47.5c-1.5,0-2.7,1.2-2.7,2.7v13.8
		c0,24.7,18.8,44.9,42.8,47.3v66c-4.2,1.1-8.1,3-11.5,5.6c-1.3,1-2.8,1.6-4.5,1.6c-1.8,0-3.2-0.6-4.5-1.6c-6-4.2-13.3-6.6-21.2-6.6
		c-11,0-21.2,5.1-28.1,12.8c-0.1,0.1-0.2,0.2-0.2,0.3"/>
</g>
<g>
	<path class="st1" d="M510.7,123.5c0,0.1,0.1,0.1,0.1,0.2c8.8,10.1,21.8,16.4,36.3,16.4c10.3,0,20.2-3,28.1-8.5
		c1.6-1.3,3.7-2.1,6-2.1c2.4,0,4.7,0.9,6.4,2.4c4.5,3.3,9.7,5.7,15.4,7.1v84.2h-11.8c-34.2,0-62,27.7-62,62c0,2,1.6,3.6,3.6,3.6h18
		c31.9,0,58.2-24.1,61.6-55.1h0.4v12.5c0,34.2,27.8,62,62,62c2,0,3.6-1.6,3.6-3.6v-18c0-32.1-24.5-58.6-55.8-61.7v-86.1
		c5.5-1.4,10.6-3.9,15-7.3c1.6-1.3,3.6-2.1,5.9-2.1c2.3,0,4.1,0.7,5.9,2.1c7.8,5.5,17.4,8.7,27.6,8.7c14.4,0,27.7-6.7,36.6-16.7
		c0.1-0.1,0.2-0.3,0.3-0.4"/>
</g>
<g>
	<path class="st1" d="M207.7,123.8c0.1,0.1,0.1,0.2,0.2,0.3c13.1,15,32.6,24.5,54.2,24.5c15.4,0,30.2-4.4,41.9-12.6
		c2.3-1.9,5.5-3.1,8.9-3.1c3.6,0,7,1.4,9.5,3.6c6.7,4.9,14.5,8.6,22.9,10.5v125.7h-17.7c-51.1,0-92.5,41.4-92.5,92.5
		c0,2.9,2.4,5.3,5.3,5.3h26.9c47.6,0,86.8-36,91.9-82.2h0.6v18.6c0,51.1,41.4,92.5,92.5,92.5c2.9,0,5.3-2.4,5.3-5.3v-26.9
		c0-48-36.5-87.4-83.3-92V146.7c8.2-2.1,15.8-5.9,22.5-10.9c2.5-2,5.4-3.2,8.8-3.2c3.4,0,6.2,1.1,8.8,3.1
		c11.7,8.2,25.9,12.9,41.2,12.9c21.5,0,41.3-10,54.6-24.9c0.2-0.2,0.3-0.4,0.5-0.6"/>
</g>
<g>
	<path class="st1" d="M129.8,123.2C129.8,123.3,129.8,123.3,129.8,123.2c3.4,3.9,8.4,6.4,14,6.4c4,0,7.8-1.1,10.8-3.2
		c0.6-0.5,1.4-0.8,2.3-0.8c0.9,0,1.8,0.3,2.4,0.9c1.7,1.3,3.7,2.2,5.9,2.7v32.3h-4.5c-13.1,0-23.8,10.6-23.8,23.8
		c0,0.8,0.6,1.4,1.4,1.4h6.9c12.2,0,22.3-9.2,23.6-21.1h0.1v4.8c0,13.1,10.6,23.8,23.8,23.8c0.8,0,1.4-0.6,1.4-1.4v-6.9
		c0-12.3-9.4-22.5-21.4-23.7v-33c2.1-0.5,4.1-1.5,5.8-2.8c0.6-0.5,1.4-0.8,2.3-0.8c0.9,0,1.6,0.3,2.3,0.8c3,2.1,6.7,3.3,10.6,3.3
		c5.5,0,10.6-2.6,14-6.4c0-0.1,0.1-0.1,0.1-0.2"/>
</g>
<g>
	<g>
		<path class="st1" d="M258.7,734.3h-31.2l-3.8,10.3h-16l35.4-91.4l35.6,91.4h-16L258.7,734.3z M232.3,721.5h21.6l-10.8-30.9
			L232.3,721.5z"/>
		<path class="st1" d="M364.4,694.1v50.7h-13l-0.8-8.1c-7.2,6.7-14.7,9.3-25.3,9.3c-23.9,0-42.5-16.6-42.5-45.7
			c0-26.4,19.9-45.7,44.4-45.7c12.3,0,23.4,5,31.4,13.1L348.3,678c-5.3-5.3-12.8-8.6-21-8.6c-16.4,0-29.6,11.4-29.6,30.9
			c0,21.7,13.2,30.9,29.6,30.9c8.9,0,16.8-3.8,22.2-10v-13.8h-23.6v-13.1H364.4z"/>
		<path class="st1" d="M407.3,707.5h-12.1v37.1h-14.9v-88.9H410c0,0,29.7,0,29.7,25.9c0,14.4-9.1,20.7-17.1,23.6l18.2,39.4h-16.4
			L407.3,707.5z M395.2,692.8H410c0,0,14.9,0,14.9-11.2c0-11-14.9-11-14.9-11h-14.7V692.8z"/>
		<path class="st1" d="M453.8,655.7h14.9v88.9h-14.9V655.7z"/>
		<path class="st1" d="M548.3,722.4l10.4,10.5c-8,8-19,13-31.4,13c-24.5,0-44.6-17.8-44.6-45.7c0-26.8,18.5-45.7,44.6-45.7
			c12.3,0,23.4,5,31.4,13.1L548.3,678c-5.3-5.3-12.8-8.6-21-8.6c-18.3,0-29.5,13-29.5,30.9c0,19,13.1,30.9,29.5,30.9
			C535.4,731,542.9,727.7,548.3,722.4z"/>
		<path class="st1" d="M570.8,716.2v-60.5h14.9v60.5c0.8,10.3,9,14.9,18.4,14.9c9.3,0,18.5-5,18.5-14.9v-60.5h14.9v60.5
			c0,18.9-14.5,29.7-33.4,29.7C585.7,745.9,570.8,734.5,570.8,716.2z"/>
		<path class="st1" d="M702.1,729.8v14.9h-47.8v-88.9h14.9v74H702.1z"/>
		<path class="st1" d="M752.7,669.3h-18.7v75.3h-14.7v-75.3h-18.7v-13.6h52.1V669.3z"/>
		<path class="st1" d="M761.9,716.2v-60.5h14.9v60.5c0.8,10.3,9,14.9,18.4,14.9c9.3,0,18.5-5,18.5-14.9v-60.5h14.9v60.5
			c0,18.9-14.5,29.7-33.4,29.7C776.9,745.9,761.9,734.5,761.9,716.2z"/>
		<path class="st1" d="M872.2,707.5h-12.1v37.1h-14.9v-88.9h29.6c0,0,29.7,0,29.7,25.9c0,14.4-9.1,20.7-17.1,23.6l18.2,39.4h-16.4
			L872.2,707.5z M860.2,692.8h14.7c0,0,14.9,0,14.9-11.2c0-11-14.9-11-14.9-11h-14.7V692.8z"/>
		<path class="st1" d="M959.4,734.3h-31.2l-3.8,10.3h-16l35.4-91.4l35.6,91.4h-16L959.4,734.3z M933,721.5h21.6l-10.8-30.9
			L933,721.5z"/>
		<path class="st1" d="M412.5,861.3h-31.2l-3.8,10.3h-16l35.4-91.4l35.6,91.4h-16L412.5,861.3z M386.1,848.5h21.6l-10.8-30.9
			L386.1,848.5z"/>
		<path class="st1" d="M499.8,846.1c0,24.4-24.9,25.5-30.9,25.5h-29.6v-88.8h29.6c0,0,29.6-0.8,29.6,24.9c0,11.7-7.2,17.7-14.9,19.6
			C500.4,830.7,499.8,846.1,499.8,846.1z M454,819.8h14.9c0,0,14.7,0,14.7-11c0-11.9-14.7-11.2-14.7-11.2H454V819.8z M484.9,845.7
			c0-11.9-16-11-16-11H454v22.2h14.9C475.1,856.9,484.9,855.4,484.9,845.7z"/>
		<path class="st1" d="M527.6,797.6v22.2h37v14.7h-37v22.2H572v14.9h-59.3v-88.9H572v14.9H527.6z"/>
		<path class="st1" d="M611,834.5h-12.1v37.1h-14.9v-88.9h29.6c0,0,29.7,0,29.7,25.9c0,14.4-9.1,20.7-17.1,23.6l18.2,39.4H628
			L611,834.5z M598.9,819.8h14.7c0,0,14.9,0,14.9-11.2c0-11-14.9-11-14.9-11h-14.7V819.8z"/>
		<path class="st1" d="M701.7,796.3H683v75.3h-14.7v-75.3h-18.7v-13.6h52.1V796.3z"/>
		<path class="st1" d="M746.5,861.3h-31.2l-3.8,10.3h-16l35.4-91.4l35.6,91.4h-16L746.5,861.3z M720.1,848.5h21.6l-10.8-30.9
			L720.1,848.5z"/>
		<path class="st1" d="M819.5,808.3c0,11.6-8.9,21-20.6,23.1V847h-13.5v-26.8c15.4,1,19.2-6.5,19.2-11.9c0-9.5-5.7-11.9-11.8-11.9
			s-11.2,3.6-11.2,9.7H767c0-14.2,11.6-24.5,25.9-24.5C807.9,781.5,819.5,790.6,819.5,808.3z M801.1,863.9c0,10.8-17,11.2-17,0
			C784.1,853.1,801.1,852.7,801.1,863.9z"/>
	</g>
	<g>
		<path class="st1" d="M368.4,913c-0.4,0.4-0.7,0.8-0.8,1.2c-0.1,0.4-0.2,0.9-0.2,1.4c0,0.5,0.2,1,0.6,1.4c0.4,0.4,1,0.8,1.7,1.1
			c0.7,0.3,1.5,0.5,2.4,0.8c0.9,0.2,1.8,0.4,2.8,0.7c0.9,0.2,1.9,0.5,2.8,0.8c0.9,0.3,1.7,0.7,2.4,1.1c1.6,1,2.3,2.3,2.3,4.1
			c0,2-0.8,3.6-2.3,4.7c-1.5,1.1-3.6,1.6-6.4,1.6c-3.1,0-5.4-0.6-7-1.9c-1.4-1.1-2.2-2.8-2.4-4.9h2.6c0.1,1.5,0.8,2.6,2.2,3.4
			c1.2,0.7,2.8,1,4.7,1c4.1,0,6.1-1.3,6.1-3.9c0-0.9-0.4-1.6-1.1-2.1c-0.7-0.5-1.7-0.9-2.8-1.3c-1.1-0.3-2.3-0.6-3.6-0.9
			s-2.5-0.7-3.6-1.1c-1.1-0.5-2-1-2.8-1.8c-0.7-0.7-1.1-1.7-1.1-3c0-1.8,0.7-3.2,2-4.4c1.4-1.1,3.4-1.7,6.2-1.7
			c2.8,0,4.9,0.6,6.4,1.9c1.4,1.1,2.1,2.6,2.2,4.3h-2.5c-0.2-1.8-1.4-3-3.5-3.6c-0.7-0.2-1.7-0.3-2.8-0.3c-1.1,0-2,0.1-2.8,0.4
			C369.4,912.3,368.8,912.6,368.4,913z"/>
		<path class="st1" d="M387.8,931.5h-2.5v-21.8h9.8c2.3,0,4.1,0.6,5.5,1.9c1.3,1.3,2,3,2,5.1c0,2.2-0.7,3.9-2,5.1
			c-1.4,1.3-3.2,1.9-5.5,1.9h-7.4V931.5z M387.8,912v9.4h7.2c1.7,0,3-0.4,3.9-1.3s1.3-2,1.3-3.4s-0.4-2.6-1.3-3.4
			c-0.9-0.8-2.2-1.3-3.9-1.3H387.8z"/>
		<path class="st1" d="M407.7,931.5h-2.5v-21.8h10.5c2.2,0,4,0.6,5.3,1.8c1.3,1.2,2,2.9,2,5c0,2.7-1.1,4.6-3.4,5.6
			c-0.6,0.3-1.3,0.5-1.9,0.6l5.7,8.8h-2.9l-5.3-8.4h-7.6V931.5z M407.7,920.7h7.6c2.3,0,3.9-0.7,4.8-2.2c0.3-0.5,0.5-1.3,0.5-2.1
			c0-1.4-0.5-2.5-1.4-3.3c-0.9-0.8-2.2-1.2-3.8-1.2h-7.7V920.7z"/>
		<path class="st1" d="M429,931.5h-2.5v-21.8h2.5V931.5z"/>
		<path class="st1" d="M452.3,909.6v21.8h-2.9L436,913v18.4h-2.5v-21.8h2.9l13.5,18.4v-18.4H452.3z"/>
		<path class="st1" d="M472.4,912h-7.6v19.5h-2.5V912h-7.6v-2.4h17.7V912z"/>
		<path class="st1" d="M490.1,909.6c1.3,0,2.6,0.2,3.8,0.7c1.2,0.5,2.3,1.2,3.2,2.2c2,2.1,3.1,4.8,3.1,8s-1,5.9-3.1,8
			c-0.9,0.9-2,1.7-3.2,2.2c-1.2,0.5-2.5,0.7-3.8,0.7h-9.2v-21.8H490.1z M490,929.1c2.3,0,4.1-0.8,5.6-2.5c1.4-1.6,2.1-3.6,2.1-6
			c0-2.4-0.7-4.4-2.1-6c-1.4-1.7-3.3-2.5-5.6-2.5h-6.6v17.2H490z"/>
		<path class="st1" d="M505.8,912v7.3h12.1v2.4h-12.1v7.4h13.6v2.4h-16.1v-21.8h16.1v2.4H505.8z"/>
		<path class="st1" d="M537.9,909.6c1.3,0,2.6,0.2,3.8,0.7c1.2,0.5,2.3,1.2,3.2,2.2c2,2.1,3.1,4.8,3.1,8s-1,5.9-3.1,8
			c-0.9,0.9-2,1.7-3.2,2.2c-1.2,0.5-2.5,0.7-3.8,0.7h-9.2v-21.8H537.9z M537.8,929.1c2.3,0,4.1-0.8,5.6-2.5c1.4-1.6,2.1-3.6,2.1-6
			c0-2.4-0.7-4.4-2.1-6c-1.4-1.7-3.3-2.5-5.6-2.5h-6.6v17.2H537.8z"/>
		<path class="st1" d="M553.6,912v7.3h12.1v2.4h-12.1v7.4h13.6v2.4h-16.1v-21.8h16.1v2.4H553.6z"/>
		<path class="st1" d="M572.6,913c-0.4,0.4-0.7,0.8-0.8,1.2c-0.1,0.4-0.2,0.9-0.2,1.4c0,0.5,0.2,1,0.6,1.4c0.4,0.4,1,0.8,1.7,1.1
			c0.7,0.3,1.5,0.5,2.4,0.8c0.9,0.2,1.8,0.4,2.8,0.7c0.9,0.2,1.9,0.5,2.8,0.8c0.9,0.3,1.7,0.7,2.4,1.1c1.6,1,2.3,2.3,2.3,4.1
			c0,2-0.8,3.6-2.3,4.7c-1.5,1.1-3.6,1.6-6.4,1.6c-3.1,0-5.4-0.6-7-1.9c-1.4-1.1-2.2-2.8-2.4-4.9h2.6c0.1,1.5,0.8,2.6,2.2,3.4
			c1.2,0.7,2.8,1,4.7,1c4.1,0,6.1-1.3,6.1-3.9c0-0.9-0.4-1.6-1.1-2.1c-0.7-0.5-1.7-0.9-2.8-1.3c-1.1-0.3-2.3-0.6-3.6-0.9
			s-2.5-0.7-3.6-1.1c-1.1-0.5-2-1-2.8-1.8c-0.7-0.7-1.1-1.7-1.1-3c0-1.8,0.7-3.2,2-4.4c1.4-1.1,3.4-1.7,6.2-1.7
			c2.8,0,4.9,0.6,6.4,1.9c1.4,1.1,2.1,2.6,2.2,4.3h-2.5c-0.2-1.8-1.4-3-3.5-3.6c-0.7-0.2-1.7-0.3-2.8-0.3c-1.1,0-2,0.1-2.8,0.4
			C573.6,912.3,573,912.6,572.6,913z"/>
		<path class="st1" d="M592,912v7.3h12.1v2.4H592v7.4h13.6v2.4h-16.1v-21.8h16.1v2.4H592z"/>
		<path class="st1" d="M627.7,909.6v21.8h-2.9L611.3,913v18.4h-2.5v-21.8h2.9l13.5,18.4v-18.4H627.7z"/>
		<path class="st1" d="M650.1,909.6l-8.8,21.8h-2.8l-8.8-21.8h2.7l7.6,19l7.6-19H650.1z"/>
		<path class="st1" d="M661.4,909.4c3.3,0,5.9,1.1,8,3.3c2,2.1,3.1,4.8,3.1,7.9s-1,5.8-3.1,7.9c-2.1,2.2-4.8,3.3-8,3.3
			c-3.3,0-5.9-1.1-8-3.3c-2-2.1-3.1-4.8-3.1-7.9s1-5.8,3.1-7.9C655.5,910.4,658.1,909.4,661.4,909.4z M661.4,929.3
			c2.6,0,4.7-0.8,6.3-2.5c1.5-1.6,2.3-3.7,2.3-6.2c0-2.5-0.8-4.6-2.3-6.2c-1.6-1.7-3.7-2.5-6.3-2.5c-2.6,0-4.7,0.8-6.3,2.5
			c-1.5,1.6-2.3,3.7-2.3,6.2c0,2.5,0.8,4.6,2.3,6.2C656.7,928.5,658.8,929.3,661.4,929.3z"/>
		<path class="st1" d="M678.1,909.6v19.5H690v2.4h-14.4v-21.8H678.1z"/>
		<path class="st1" d="M707.5,909.6l-8.8,21.8h-2.8l-8.8-21.8h2.7l7.6,19l7.6-19H707.5z"/>
		<path class="st1" d="M711.9,931.5h-2.5v-21.8h2.5V931.5z"/>
		<path class="st1" d="M737.7,909.6v21.8h-2.5v-18.1l-8.1,10.4l-8.2-10.4v18.1h-2.5v-21.8h2.9l7.8,10.4l7.7-10.4H737.7z"/>
		<path class="st1" d="M744.7,912v7.3h12.1v2.4h-12.1v7.4h13.6v2.4h-16.1v-21.8h16.1v2.4H744.7z"/>
		<path class="st1" d="M780.3,909.6v21.8h-2.9L763.9,913v18.4h-2.5v-21.8h2.9l13.5,18.4v-18.4H780.3z"/>
		<path class="st1" d="M800.3,912h-7.6v19.5h-2.5V912h-7.6v-2.4h17.7V912z"/>
		<path class="st1" d="M811.4,909.4c3.3,0,5.9,1.1,8,3.3c2,2.1,3.1,4.8,3.1,7.9s-1,5.8-3.1,7.9c-2.1,2.2-4.8,3.3-8,3.3
			c-3.3,0-5.9-1.1-8-3.3c-2-2.1-3.1-4.8-3.1-7.9s1-5.8,3.1-7.9C805.5,910.4,808.1,909.4,811.4,909.4z M811.4,929.3
			c2.6,0,4.7-0.8,6.3-2.5c1.5-1.6,2.3-3.7,2.3-6.2c0-2.5-0.8-4.6-2.3-6.2c-1.6-1.7-3.7-2.5-6.3-2.5c-2.6,0-4.7,0.8-6.3,2.5
			c-1.5,1.6-2.3,3.7-2.3,6.2c0,2.5,0.8,4.6,2.3,6.2C806.7,928.5,808.8,929.3,811.4,929.3z"/>
		<path class="st1" d="M324.6,976.5h-2.5v-21.8h9.8c2.3,0,4.1,0.6,5.5,1.9c1.3,1.3,2,3,2,5.1c0,2.2-0.7,3.9-2,5.1
			c-1.4,1.3-3.2,1.9-5.5,1.9h-7.4V976.5z M324.6,957v9.4h7.2c1.7,0,3-0.4,3.9-1.3s1.3-2,1.3-3.4s-0.4-2.6-1.3-3.4
			c-0.9-0.8-2.2-1.3-3.9-1.3H324.6z"/>
		<path class="st1" d="M344.5,954.6v19.5h11.9v2.4H342v-21.8H344.5z"/>
		<path class="st1" d="M377.9,976.5h-2.7l-2.7-6.3h-10.8l-2.7,6.3h-2.7l9.3-21.8h3.1L377.9,976.5z M371.5,967.9l-4.5-10.7l-4.5,10.7
			H371.5z"/>
		<path class="st1" d="M382.3,957v7.6h11.8v2.4h-11.8v9.5h-2.5v-21.8h15.8v2.4H382.3z"/>
		<path class="st1" d="M407.9,954.4c3.3,0,5.9,1.1,8,3.3c2,2.1,3.1,4.8,3.1,7.9s-1,5.8-3.1,7.9c-2.1,2.2-4.8,3.3-8,3.3
			c-3.3,0-5.9-1.1-8-3.3c-2-2.1-3.1-4.8-3.1-7.9s1-5.8,3.1-7.9C402,955.4,404.7,954.4,407.9,954.4z M407.9,974.3
			c2.6,0,4.7-0.8,6.3-2.5c1.5-1.6,2.3-3.7,2.3-6.2c0-2.5-0.8-4.6-2.3-6.2c-1.6-1.7-3.7-2.5-6.3-2.5c-2.6,0-4.7,0.8-6.3,2.5
			c-1.5,1.6-2.3,3.7-2.3,6.2c0,2.5,0.8,4.6,2.3,6.2C403.2,973.5,405.3,974.3,407.9,974.3z"/>
		<path class="st1" d="M424.6,976.5h-2.5v-21.8h10.5c2.2,0,4,0.6,5.3,1.8c1.3,1.2,2,2.9,2,5c0,2.7-1.1,4.6-3.4,5.6
			c-0.6,0.3-1.3,0.5-1.9,0.6l5.7,8.8h-2.9l-5.3-8.4h-7.6V976.5z M424.6,965.7h7.6c2.3,0,3.9-0.7,4.8-2.2c0.3-0.5,0.5-1.3,0.5-2.1
			c0-1.4-0.5-2.5-1.4-3.3c-0.9-0.8-2.2-1.2-3.8-1.2h-7.7V965.7z"/>
		<path class="st1" d="M464.7,954.6v21.8h-2.5v-18.1l-8.1,10.4l-8.2-10.4v18.1h-2.5v-21.8h2.9l7.8,10.4l7.7-10.4H464.7z"/>
		<path class="st1" d="M488.3,976.5h-2.7l-2.7-6.3H472l-2.7,6.3h-2.7l9.3-21.8h3.1L488.3,976.5z M481.9,967.9l-4.5-10.7l-4.5,10.7
			H481.9z"/>
		<path class="st1" d="M498.9,976.5h-2.5v-21.8h10.5c2.2,0,4,0.6,5.3,1.8c1.3,1.2,2,2.9,2,5c0,2.7-1.1,4.6-3.4,5.6
			c-0.6,0.3-1.3,0.5-1.9,0.6l5.7,8.8h-2.9l-5.3-8.4h-7.6V976.5z M498.9,965.7h7.6c2.3,0,3.9-0.7,4.8-2.2c0.3-0.5,0.5-1.3,0.5-2.1
			c0-1.4-0.5-2.5-1.4-3.3c-0.9-0.8-2.2-1.2-3.8-1.2h-7.7V965.7z"/>
		<path class="st1" d="M520.1,957v7.3h12.1v2.4h-12.1v7.4h13.6v2.4h-16.1v-21.8h16.1v2.4H520.1z"/>
		<path class="st1" d="M539.4,976.5h-2.5v-21.8h9.8c2.3,0,4.1,0.6,5.5,1.9c1.3,1.3,2,3,2,5.1c0,2.2-0.7,3.9-2,5.1
			c-1.4,1.3-3.2,1.9-5.5,1.9h-7.4V976.5z M539.4,957v9.4h7.2c1.7,0,3-0.4,3.9-1.3s1.3-2,1.3-3.4s-0.4-2.6-1.3-3.4
			c-0.9-0.8-2.2-1.3-3.9-1.3H539.4z"/>
		<path class="st1" d="M566.5,954.4c3.3,0,5.9,1.1,8,3.3c2,2.1,3.1,4.8,3.1,7.9s-1,5.8-3.1,7.9c-2.1,2.2-4.8,3.3-8,3.3
			c-3.3,0-5.9-1.1-8-3.3c-2-2.1-3.1-4.8-3.1-7.9s1-5.8,3.1-7.9C560.6,955.4,563.3,954.4,566.5,954.4z M566.5,974.3
			c2.6,0,4.7-0.8,6.3-2.5c1.5-1.6,2.3-3.7,2.3-6.2c0-2.5-0.8-4.6-2.3-6.2c-1.6-1.7-3.7-2.5-6.3-2.5c-2.6,0-4.7,0.8-6.3,2.5
			c-1.5,1.6-2.3,3.7-2.3,6.2c0,2.5,0.8,4.6,2.3,6.2C561.8,973.5,563.9,974.3,566.5,974.3z"/>
		<path class="st1" d="M583.2,958c-0.4,0.4-0.7,0.8-0.8,1.2c-0.1,0.4-0.2,0.9-0.2,1.4c0,0.5,0.2,1,0.6,1.4c0.4,0.4,1,0.8,1.7,1.1
			c0.7,0.3,1.5,0.5,2.4,0.8c0.9,0.2,1.8,0.4,2.8,0.7c0.9,0.2,1.9,0.5,2.8,0.8c0.9,0.3,1.7,0.7,2.4,1.1c1.6,1,2.3,2.3,2.3,4.1
			c0,2-0.8,3.6-2.3,4.7c-1.5,1.1-3.6,1.6-6.4,1.6c-3.1,0-5.4-0.6-7-1.9c-1.4-1.1-2.2-2.8-2.4-4.9h2.6c0.1,1.5,0.8,2.6,2.2,3.4
			c1.2,0.7,2.8,1,4.7,1c4.1,0,6.1-1.3,6.1-3.9c0-0.9-0.4-1.6-1.1-2.1c-0.7-0.5-1.7-0.9-2.8-1.3c-1.1-0.3-2.3-0.6-3.6-0.9
			s-2.5-0.7-3.6-1.1c-1.1-0.5-2-1-2.8-1.8c-0.7-0.7-1.1-1.7-1.1-3c0-1.8,0.7-3.2,2-4.4c1.4-1.1,3.4-1.7,6.2-1.7
			c2.8,0,4.9,0.6,6.4,1.9c1.4,1.1,2.1,2.6,2.2,4.3h-2.5c-0.2-1.8-1.4-3-3.5-3.6c-0.7-0.2-1.7-0.3-2.8-0.3c-1.1,0-2,0.1-2.8,0.4
			C584.2,957.3,583.7,957.6,583.2,958z"/>
		<path class="st1" d="M602.7,976.5h-2.5v-21.8h2.5V976.5z"/>
		<path class="st1" d="M622.7,957h-7.6v19.5h-2.5V957H605v-2.4h17.7V957z"/>
		<path class="st1" d="M633.8,954.4c3.3,0,5.9,1.1,8,3.3c2,2.1,3.1,4.8,3.1,7.9s-1,5.8-3.1,7.9c-2.1,2.2-4.8,3.3-8,3.3
			c-3.3,0-5.9-1.1-8-3.3c-2-2.1-3.1-4.8-3.1-7.9s1-5.8,3.1-7.9C627.9,955.4,630.5,954.4,633.8,954.4z M633.8,974.3
			c2.6,0,4.7-0.8,6.3-2.5c1.5-1.6,2.3-3.7,2.3-6.2c0-2.5-0.8-4.6-2.3-6.2c-1.6-1.7-3.7-2.5-6.3-2.5c-2.6,0-4.7,0.8-6.3,2.5
			c-1.5,1.6-2.3,3.7-2.3,6.2c0,2.5,0.8,4.6,2.3,6.2C629.1,973.5,631.2,974.3,633.8,974.3z M633.4,949.4h3.5l-3.5,3.5h-2L633.4,949.4
			z"/>
		<path class="st1" d="M650.5,976.5H648v-21.8h10.5c2.2,0,4,0.6,5.3,1.8c1.3,1.2,2,2.9,2,5c0,2.7-1.1,4.6-3.4,5.6
			c-0.6,0.3-1.3,0.5-1.9,0.6l5.7,8.8h-2.9l-5.3-8.4h-7.6V976.5z M650.5,965.7h7.6c2.3,0,3.9-0.7,4.8-2.2c0.3-0.5,0.5-1.3,0.5-2.1
			c0-1.4-0.5-2.5-1.4-3.3c-0.9-0.8-2.2-1.2-3.8-1.2h-7.7V965.7z"/>
		<path class="st1" d="M671.7,976.5h-2.5v-21.8h2.5V976.5z"/>
		<path class="st1" d="M686,954.4c3.3,0,5.9,1.1,8,3.3c2,2.1,3.1,4.8,3.1,7.9s-1,5.8-3.1,7.9c-2.1,2.2-4.8,3.3-8,3.3
			c-3.3,0-5.9-1.1-8-3.3c-2-2.1-3.1-4.8-3.1-7.9s1-5.8,3.1-7.9C680,955.4,682.7,954.4,686,954.4z M686,974.3c2.6,0,4.7-0.8,6.3-2.5
			c1.5-1.6,2.3-3.7,2.3-6.2c0-2.5-0.8-4.6-2.3-6.2c-1.6-1.7-3.7-2.5-6.3-2.5c-2.6,0-4.7,0.8-6.3,2.5c-1.5,1.6-2.3,3.7-2.3,6.2
			c0,2.5,0.8,4.6,2.3,6.2C681.3,973.5,683.4,974.3,686,974.3z"/>
		<path class="st1" d="M708.9,957v7.6h11.8v2.4h-11.8v9.5h-2.5v-21.8h15.8v2.4H708.9z"/>
		<path class="st1" d="M742.1,976.5h-2.7l-2.7-6.3h-10.8l-2.7,6.3h-2.7l9.3-21.8h3.1L742.1,976.5z M735.7,967.9l-4.5-10.7l-4.5,10.7
			H735.7z"/>
		<path class="st1" d="M746.5,976.5H744v-21.8h10.5c2.2,0,4,0.6,5.3,1.8c1.3,1.2,2,2.9,2,5c0,2.7-1.1,4.6-3.4,5.6
			c-0.6,0.3-1.3,0.5-1.9,0.6l5.7,8.8h-2.9l-5.3-8.4h-7.6V976.5z M746.5,965.7h7.6c2.3,0,3.9-0.7,4.8-2.2c0.3-0.5,0.5-1.3,0.5-2.1
			c0-1.4-0.5-2.5-1.4-3.3c-0.9-0.8-2.2-1.2-3.8-1.2h-7.7V965.7z"/>
		<path class="st1" d="M786.6,954.6v21.8h-2.5v-18.1l-8.1,10.4l-8.2-10.4v18.1h-2.5v-21.8h2.9L776,965l7.7-10.4H786.6z"/>
		<path class="st1" d="M793.5,954.6v19.5h11.9v2.4h-14.4v-21.8H793.5z"/>
		<path class="st1" d="M826.9,976.5h-2.7l-2.7-6.3h-10.8l-2.7,6.3h-2.7l9.3-21.8h3.1L826.9,976.5z M820.5,967.9l-4.5-10.7l-4.5,10.7
			H820.5z"/>
		<path class="st1" d="M845.6,960.4c0,2.4-1,4-2.9,4.9c1.8,0.6,3,1.7,3.7,3.3c0.2,0.6,0.4,1.3,0.4,2.1c0,2.6-1.4,4.4-4.2,5.3
			c-0.9,0.3-2,0.5-3.3,0.5h-10.4v-21.8h9.8c2.4,0,4.1,0.6,5.4,1.9C845,957.5,845.6,958.8,845.6,960.4z M831.3,964.4h7.3
			c2,0,3.4-0.7,4.1-2.1c0.2-0.5,0.4-1,0.4-1.6c0-0.6-0.1-1.1-0.2-1.5c-0.2-0.4-0.4-0.8-0.7-1.1c-0.7-0.8-1.8-1.2-3.2-1.2h-7.6V964.4
			z M839.5,974.1c1.5,0,2.7-0.3,3.5-0.9c0.8-0.6,1.2-1.5,1.2-2.7c0-1.1-0.4-2-1.2-2.7c-0.9-0.8-2.1-1.2-3.8-1.2h-7.9v7.5H839.5z"/>
		<path class="st1" d="M852.4,958c-0.4,0.4-0.7,0.8-0.8,1.2c-0.1,0.4-0.2,0.9-0.2,1.4c0,0.5,0.2,1,0.6,1.4c0.4,0.4,1,0.8,1.7,1.1
			c0.7,0.3,1.5,0.5,2.4,0.8c0.9,0.2,1.8,0.4,2.8,0.7c0.9,0.2,1.9,0.5,2.8,0.8s1.7,0.7,2.4,1.1c1.6,1,2.3,2.3,2.3,4.1
			c0,2-0.8,3.6-2.3,4.7c-1.5,1.1-3.6,1.6-6.4,1.6c-3.1,0-5.4-0.6-7-1.9c-1.4-1.1-2.2-2.8-2.4-4.9h2.6c0.1,1.5,0.8,2.6,2.2,3.4
			c1.2,0.7,2.8,1,4.7,1c4.1,0,6.1-1.3,6.1-3.9c0-0.9-0.4-1.6-1.1-2.1c-0.7-0.5-1.7-0.9-2.8-1.3c-1.1-0.3-2.3-0.6-3.6-0.9
			s-2.5-0.7-3.6-1.1c-1.1-0.5-2-1-2.8-1.8c-0.7-0.7-1.1-1.7-1.1-3c0-1.8,0.7-3.2,2-4.4s3.4-1.7,6.2-1.7c2.8,0,4.9,0.6,6.4,1.9
			c1.4,1.1,2.1,2.6,2.2,4.3h-2.5c-0.2-1.8-1.4-3-3.5-3.6c-0.7-0.2-1.7-0.3-2.8-0.3s-2,0.1-2.8,0.4S852.8,957.6,852.4,958z"/>
	</g>
	<g>
		<path class="st1" d="M327.1,1055.7h-6.7v-32.3l-5.9,2.2l-2.2-4.8l9.2-5h5.6V1055.7z"/>
		<path class="st1" d="M344.6,1055.7H338v-32.3l-5.9,2.2l-2.2-4.8l9.2-5h5.6V1055.7z"/>
		<path class="st1" d="M377,1022.4v10h16.6v6.6H377v10h20v6.7h-26.6v-39.9H397v6.7H377z"/>
		<path class="st1" d="M430.7,1055.7H424v-32.3l-5.9,2.2l-2.2-4.8l9.2-5h5.6V1055.7z"/>
		<path class="st1" d="M459,1055.7h-23.3v-6l14.3-19.7c3.2-4.4,0.7-8-2.7-8c-2.4,0-5,1.4-5,4.8h-6.3c0-6.4,3.5-11.5,11.2-11.5
			c8,0,15.3,8.4,8.3,18l-11.9,15.8H459V1055.7z"/>
		<path class="st1" d="M489.6,1015.8c9.7,0,23.3,2.2,23.3,20c0,17-13.4,20-23.3,20h-6.7v-39.9H489.6z M506.2,1035.7
			c0-16-16.6-13.5-16.6-13.5v26.9C489.6,1049.2,506.2,1051.4,506.2,1035.7z"/>
		<path class="st1" d="M525.9,1022.4v10h16.6v6.6h-16.6v10h20v6.7h-26.6v-39.9h26.6v6.7H525.9z"/>
		<path class="st1" d="M602.8,1055.7H596l-19.8-28.4v28.4h-6.7v-39.9h6.7l19.9,28.4v-28.4h6.6V1055.7z"/>
		<path class="st1" d="M628.5,1056.2c-26.3,0-26.3-40.9,0-40.9C654.7,1015.2,654.8,1056.2,628.5,1056.2z M628.5,1021.7
			c-17.2,0-17.3,28,0,28S645.8,1021.7,628.5,1021.7z"/>
		<path class="st1" d="M681.8,1015.8l-16,40.9l-15.9-40.9h7.2l8.7,23.5l8.8-23.5H681.8z"/>
		<path class="st1" d="M691.6,1022.4v10h16.6v6.6h-16.6v10h20v6.7h-26.6v-39.9h26.6v6.7H691.6z"/>
		<path class="st1" d="M760.2,1055.7h-6.7v-24.5l-11.5,24.5h-6.3l-12.2-25v25h-6.7v-40h6.8l15.2,31.1l14.5-31.1h6.8V1055.7z"/>
		<path class="st1" d="M794.9,1044.2c0,10.9-11.2,11.5-13.9,11.5h-13.3v-39.8h13.3c0,0,13.3-0.3,13.3,11.2c0,5.2-3.2,7.9-6.7,8.8
			C795.2,1037.3,794.9,1044.2,794.9,1044.2z M774.4,1032.4h6.7c0,0,6.6,0,6.6-5c0-5.4-6.6-5-6.6-5h-6.7V1032.4z M788.2,1044
			c0-5.4-7.2-5-7.2-5h-6.7v10h6.7C783.9,1049,788.2,1048.4,788.2,1044z"/>
		<path class="st1" d="M812.8,1039h-5.4v16.6h-6.7v-39.9H814c0,0,13.3,0,13.3,11.6c0,6.4-4.1,9.3-7.7,10.6l8.2,17.7h-7.4L812.8,1039
			z M807.3,1032.4h6.6c0,0,6.7,0,6.7-5c0-5-6.7-5-6.7-5h-6.6V1032.4z"/>
		<path class="st1" d="M851.6,1056.2c-26.3,0-26.3-40.9,0-40.9C877.7,1015.2,877.8,1056.2,851.6,1056.2z M851.6,1021.7
			c-17.2,0-17.3,28,0,28C868.8,1049.7,868.8,1021.7,851.6,1021.7z"/>
	</g>
	<g>
		<path class="st1" d="M382.2,1108.3c1.2,0,2.3-0.3,3.2-0.9c0.9-0.6,1.6-1.5,2.1-2.5h2.1c-0.6,1.6-1.5,2.9-2.8,3.8
			c-1.4,1-3.1,1.5-5,1.5c-2.5,0-4.5-0.9-6.1-2.6c-1.5-1.6-2.2-3.7-2.2-6.2c0-2.5,0.7-4.6,2.2-6.2c1.6-1.7,3.6-2.6,6.1-2.6
			c1.9,0,3.6,0.5,5,1.5c1.3,0.9,2.3,2.2,2.8,3.8h-2.1c-0.5-1.1-1.1-1.9-2.1-2.5c-0.9-0.6-2-0.9-3.2-0.9c-1.2,0-2.3,0.2-3.1,0.5
			c-0.8,0.4-1.5,0.8-2.1,1.5c-1.1,1.3-1.7,2.9-1.7,4.9s0.6,3.6,1.7,4.9C378.3,1107.6,380,1108.3,382.2,1108.3z"/>
		<path class="st1" d="M393.8,1094.7v5.8h9.6v1.9h-9.6v5.8h10.7v1.9h-12.7v-17.2h12.7v1.9H393.8z"/>
		<path class="st1" d="M421.9,1092.8v17.2h-2.3l-10.6-14.5v14.5h-2v-17.2h2.3l10.6,14.5v-14.5H421.9z"/>
		<path class="st1" d="M437.6,1094.7h-6v15.3h-1.9v-15.3h-6v-1.9h14V1094.7z"/>
		<path class="st1" d="M441.4,1110h-2v-17.2h8.2c1.8,0,3.2,0.5,4.2,1.5c1.1,1,1.6,2.3,1.6,3.9c0,2.1-0.9,3.6-2.7,4.4
			c-0.5,0.2-1,0.4-1.5,0.5l4.5,6.9h-2.3l-4.2-6.6h-6V1110z M441.4,1101.6h6c1.8,0,3.1-0.6,3.8-1.7c0.3-0.4,0.4-1,0.4-1.7
			c0-1.1-0.4-2-1.1-2.6c-0.7-0.6-1.7-0.9-3-0.9h-6.1V1101.6z"/>
		<path class="st1" d="M463.8,1092.6c2.6,0,4.7,0.9,6.3,2.6c1.6,1.7,2.4,3.7,2.4,6.2s-0.8,4.6-2.4,6.2c-1.6,1.7-3.8,2.6-6.3,2.6
			c-2.6,0-4.7-0.9-6.3-2.6c-1.6-1.7-2.4-3.7-2.4-6.2s0.8-4.6,2.4-6.2C459.2,1093.4,461.3,1092.6,463.8,1092.6z M463.8,1108.3
			c2,0,3.7-0.7,5-2c1.2-1.3,1.8-2.9,1.8-4.9s-0.6-3.6-1.8-4.9c-1.3-1.3-2.9-2-5-2c-2,0-3.7,0.7-5,2c-1.2,1.3-1.8,2.9-1.8,4.9
			s0.6,3.6,1.8,4.9C460.1,1107.6,461.8,1108.3,463.8,1108.3z"/>
		<path class="st1" d="M487.2,1092.8c1,0,2,0.2,3,0.6c1,0.4,1.8,1,2.5,1.7c1.6,1.6,2.4,3.8,2.4,6.3s-0.8,4.7-2.4,6.3
			c-0.7,0.7-1.6,1.3-2.5,1.7c-1,0.4-1.9,0.6-3,0.6h-7.3v-17.2H487.2z M487.1,1108.2c1.8,0,3.3-0.7,4.4-2c1.1-1.3,1.6-2.9,1.6-4.8
			s-0.5-3.5-1.6-4.8c-1.1-1.3-2.6-2-4.4-2h-5.2v13.5H487.1z"/>
		<path class="st1" d="M499.5,1094.7v5.8h9.6v1.9h-9.6v5.8h10.7v1.9h-12.7v-17.2h12.7v1.9H499.5z"/>
		<path class="st1" d="M519.6,1110h-2v-17.2h2V1110z"/>
		<path class="st1" d="M538,1092.8v17.2h-2.3l-10.6-14.5v14.5h-2v-17.2h2.3l10.6,14.5v-14.5H538z"/>
		<path class="st1" d="M549.2,1092.6c2.6,0,4.7,0.9,6.3,2.6c1.6,1.7,2.4,3.7,2.4,6.2s-0.8,4.6-2.4,6.2c-1.6,1.7-3.8,2.6-6.3,2.6
			c-2.6,0-4.7-0.9-6.3-2.6c-1.6-1.7-2.4-3.7-2.4-6.2s0.8-4.6,2.4-6.2C544.5,1093.4,546.6,1092.6,549.2,1092.6z M549.2,1108.3
			c2,0,3.7-0.7,5-2c1.2-1.3,1.8-2.9,1.8-4.9s-0.6-3.6-1.8-4.9c-1.3-1.3-2.9-2-5-2c-2,0-3.7,0.7-5,2c-1.2,1.3-1.8,2.9-1.8,4.9
			s0.6,3.6,1.8,4.9C545.5,1107.6,547.2,1108.3,549.2,1108.3z"/>
		<path class="st1" d="M574.2,1092.8l-7,17.2H565l-7-17.2h2.1l6,15l6-15H574.2z"/>
		<path class="st1" d="M589.7,1110h-2.2l-2.1-5h-8.5l-2.1,5h-2.2l7.3-17.2h2.4L589.7,1110z M584.7,1103.2l-3.5-8.4l-3.5,8.4H584.7z"
			/>
		<path class="st1" d="M597.9,1111.4c0.2,0,0.4-0.1,0.6-0.1c0.7,0,1.2,0.2,1.7,0.5c0.5,0.4,0.7,0.8,0.7,1.5c0,1-0.6,1.7-1.8,2
			c-0.3,0.1-0.8,0.1-1.3,0.1c-0.5,0-1.1-0.1-1.6-0.3c-0.5-0.2-1-0.5-1.3-0.7l0.5-0.9c0.8,0.5,1.5,0.8,2.2,0.8c1,0,1.4-0.3,1.4-0.9
			c0-0.3-0.1-0.5-0.4-0.6c-0.3-0.2-0.6-0.2-0.9-0.2c-0.3,0-0.7,0-0.9,0.1l-0.5-0.4l1.3-2c-2.3-0.2-4.2-1.1-5.6-2.8
			c-1.3-1.6-2-3.6-2-6c0-2.5,0.7-4.6,2.2-6.2c1.6-1.7,3.6-2.6,6.1-2.6c1.9,0,3.6,0.5,5,1.5c1.3,0.9,2.3,2.2,2.8,3.8h-2.1
			c-0.5-1.1-1.1-1.9-2.1-2.5c-0.9-0.6-2-0.9-3.2-0.9c-1.2,0-2.3,0.2-3.1,0.5c-0.8,0.4-1.5,0.8-2.1,1.5c-1.1,1.3-1.7,2.9-1.7,4.9
			s0.6,3.6,1.7,4.9c1.2,1.3,2.8,2,4.8,2c1.4,0,2.6-0.3,3.5-0.9c0.9-0.6,1.6-1.5,2.1-2.5h2.1c-0.5,1.5-1.4,2.8-2.7,3.8
			c-1.3,1-2.8,1.5-4.7,1.6L597.9,1111.4z"/>
		<path class="st1" d="M623.2,1110H621l-2.1-5h-8.5l-2.1,5h-2.2l7.3-17.2h2.4L623.2,1110z M612.8,1090.4c-0.6,0-1,0.3-1.3,1h-0.8
			c0.1-1.1,0.6-1.9,1.4-2.3c0.3-0.1,0.7-0.2,1.1-0.2c0.6,0,1.1,0.1,1.6,0.4c0.5,0.2,0.9,0.4,1.1,0.5c0.3,0.1,0.5,0.2,0.9,0.2
			s0.6-0.1,0.8-0.4s0.3-0.5,0.4-0.7h0.8c-0.3,1.7-1.1,2.5-2.5,2.5c-0.6,0-1.2-0.1-1.6-0.4c-0.5-0.2-0.8-0.4-1.1-0.5
			S613.1,1090.4,612.8,1090.4z M618.2,1103.2l-3.5-8.4l-3.5,8.4H618.2z"/>
		<path class="st1" d="M632,1092.6c2.6,0,4.7,0.9,6.3,2.6c1.6,1.7,2.4,3.7,2.4,6.2s-0.8,4.6-2.4,6.2c-1.6,1.7-3.8,2.6-6.3,2.6
			c-2.6,0-4.7-0.9-6.3-2.6c-1.6-1.7-2.4-3.7-2.4-6.2s0.8-4.6,2.4-6.2C627.4,1093.4,629.5,1092.6,632,1092.6z M632,1108.3
			c2,0,3.7-0.7,5-2c1.2-1.3,1.8-2.9,1.8-4.9s-0.6-3.6-1.8-4.9c-1.3-1.3-2.9-2-5-2c-2,0-3.7,0.7-5,2c-1.2,1.3-1.8,2.9-1.8,4.9
			s0.6,3.6,1.8,4.9C628.3,1107.6,630,1108.3,632,1108.3z"/>
		<path class="st1" d="M655.4,1092.8c1,0,2,0.2,3,0.6c1,0.4,1.8,1,2.5,1.7c1.6,1.6,2.4,3.8,2.4,6.3s-0.8,4.7-2.4,6.3
			c-0.7,0.7-1.6,1.3-2.5,1.7c-1,0.4-1.9,0.6-3,0.6h-7.3v-17.2H655.4z M655.3,1108.2c1.8,0,3.3-0.7,4.4-2c1.1-1.3,1.6-2.9,1.6-4.8
			s-0.5-3.5-1.6-4.8c-1.1-1.3-2.6-2-4.4-2h-5.2v13.5H655.3z"/>
		<path class="st1" d="M680.5,1110h-2.2l-2.1-5h-8.5l-2.1,5h-2.2l7.3-17.2h2.4L680.5,1110z M675.5,1103.2l-3.5-8.4l-3.5,8.4H675.5z"
			/>
		<path class="st1" d="M703.6,1092.8v17.2h-2v-14.2l-6.4,8.2l-6.5-8.2v14.2h-2v-17.2h2.3l6.2,8.2l6.1-8.2H703.6z"/>
		<path class="st1" d="M714.9,1092.6c2.6,0,4.7,0.9,6.3,2.6c1.6,1.7,2.4,3.7,2.4,6.2s-0.8,4.6-2.4,6.2c-1.6,1.7-3.8,2.6-6.3,2.6
			c-2.6,0-4.7-0.9-6.3-2.6c-1.6-1.7-2.4-3.7-2.4-6.2s0.8-4.6,2.4-6.2C710.2,1093.4,712.3,1092.6,714.9,1092.6z M714.9,1108.3
			c2,0,3.7-0.7,5-2c1.2-1.3,1.8-2.9,1.8-4.9s-0.6-3.6-1.8-4.9c-1.3-1.3-2.9-2-5-2c-2,0-3.7,0.7-5,2c-1.2,1.3-1.8,2.9-1.8,4.9
			s0.6,3.6,1.8,4.9C711.2,1107.6,712.8,1108.3,714.9,1108.3z"/>
		<path class="st1" d="M740.5,1092.8v9.8c0,2.3-0.7,4.1-2,5.5s-3.1,2.1-5.3,2.1c-2.1,0-3.9-0.7-5.3-2.1c-1.4-1.4-2-3.2-2-5.5v-9.8h2
			v9.9c0,1.9,0.6,3.3,1.7,4.3c1,0.9,2.2,1.3,3.7,1.3s2.7-0.4,3.7-1.3c1.1-1,1.7-2.5,1.7-4.3v-9.9H740.5z"/>
		<path class="st1" d="M745.8,1110h-2v-17.2h8.2c1.8,0,3.2,0.5,4.2,1.5c1.1,1,1.6,2.3,1.6,3.9c0,2.1-0.9,3.6-2.7,4.4
			c-0.5,0.2-1,0.4-1.5,0.5l4.5,6.9h-2.3l-4.2-6.6h-6V1110z M745.8,1101.6h6c1.8,0,3.1-0.6,3.8-1.7c0.3-0.4,0.4-1,0.4-1.7
			c0-1.1-0.4-2-1.1-2.6c-0.7-0.6-1.7-0.9-3-0.9h-6.1V1101.6z"/>
		<path class="st1" d="M775.6,1110h-2.2l-2.1-5h-8.5l-2.1,5h-2.2l7.3-17.2h2.4L775.6,1110z M770.6,1103.2l-3.5-8.4l-3.5,8.4H770.6z"
			/>
		<path class="st1" d="M779.1,1110h-2v-17.2h8.2c1.8,0,3.2,0.5,4.2,1.5c1.1,1,1.6,2.3,1.6,3.9c0,2.1-0.9,3.6-2.7,4.4
			c-0.5,0.2-1,0.4-1.5,0.5l4.5,6.9h-2.3l-4.2-6.6h-6V1110z M779.1,1101.6h6c1.8,0,3.1-0.6,3.8-1.7c0.3-0.4,0.4-1,0.4-1.7
			c0-1.1-0.4-2-1.1-2.6c-0.7-0.6-1.7-0.9-3-0.9h-6.1V1101.6z"/>
		<path class="st1" d="M795.8,1110h-2v-17.2h2V1110z"/>
		<path class="st1" d="M814.4,1110h-2.2l-2.1-5h-8.5l-2.1,5h-2.2l7.3-17.2h2.4L814.4,1110z M809.4,1103.2l-3.5-8.4l-3.5,8.4H809.4z"
			/>
	</g>
	<g>
		<path class="st1" d="M243.5,1182.6c-26.3,0-26.3-40.9,0-40.9C269.7,1141.6,269.7,1182.6,243.5,1182.6z M243.5,1148.1
			c-17.2,0-17.3,28,0,28C260.8,1176.1,260.8,1148.1,243.5,1148.1z"/>
		<path class="st1" d="M296.1,1153.8c0,11.7-13.3,11.7-13.3,11.7h-6.7v16.6h-6.7v-40h13.3C282.7,1142.2,296.1,1142.2,296.1,1153.8z
			 M289.4,1153.8c0-5-6.7-5-6.7-5h-6.7v10h6.7C282.7,1158.9,289.4,1158.9,289.4,1153.8z"/>
		<path class="st1" d="M307.7,1148.8v10h16.6v6.6h-16.6v10h20v6.7H301v-39.9h26.6v6.7H307.7z"/>
		<path class="st1" d="M366.3,1182.1h-6.7l-19.8-28.4v28.4h-6.7v-39.9h6.7l19.9,28.4v-28.4h6.6V1182.1z"/>
		<path class="st1" d="M420.3,1172.1l4.7,4.7c-3.6,3.6-8.6,5.8-14.1,5.8c-11,0-20-8-20-20.5c0-12,8.3-20.5,20-20.5
			c5.5,0,10.5,2.2,14.1,5.9l-4.7,4.7c-2.4-2.4-5.8-3.9-9.4-3.9c-8.2,0-13.2,5.8-13.2,13.9c0,8.6,5.9,13.9,13.2,13.9
			C414.5,1176,417.9,1174.5,420.3,1172.1z"/>
		<path class="st1" d="M448.8,1177.4h-14l-1.7,4.6h-7.2l15.9-41l16,41h-7.2L448.8,1177.4z M436.9,1171.7h9.7l-4.8-13.9L436.9,1171.7
			z"/>
		<path class="st1" d="M482.2,1175.4v6.7h-21.4v-39.9h6.7v33.2H482.2z"/>
		<path class="st1" d="M509.4,1175.4v6.7h-21.4v-39.9h6.7v33.2H509.4z"/>
		<path class="st1" d="M551.2,1165h-20.1v-6h20.1V1165z"/>
		<path class="st1" d="M582,1148.8v10h16.6v6.6H582v16.6h-6.7v-39.9H602v6.7H582z"/>
		<path class="st1" d="M625.4,1177.4h-14l-1.7,4.6h-7.2l15.9-41l16,41h-7.2L625.4,1177.4z M613.5,1171.7h9.7l-4.8-13.9L613.5,1171.7
			z"/>
		<path class="st1" d="M649.5,1165.4H644v16.6h-6.7v-39.9h13.3c0,0,13.3,0,13.3,11.6c0,6.4-4.1,9.3-7.7,10.6l8.2,17.7h-7.4
			L649.5,1165.4z M644,1158.8h6.6c0,0,6.7,0,6.7-5c0-5-6.7-5-6.7-5H644V1158.8z"/>
		<path class="st1" d="M713.4,1182.1h-6.7v-24.5l-11.5,24.5H689l-12.2-25v25h-6.7v-40h6.8l15.2,31.1l14.5-31.1h6.8V1182.1z"/>
		<path class="st1" d="M742.4,1175.4v6.7h-21.4v-39.9h6.7v33.2H742.4z"/>
		<path class="st1" d="M766.5,1177.4h-14l-1.7,4.6h-7.2l15.9-41l16,41h-7.2L766.5,1177.4z M754.6,1171.7h9.7l-4.8-13.9L754.6,1171.7
			z"/>
		<path class="st1" d="M805.6,1170.6c0,10.9-11.2,11.5-13.9,11.5h-13.3v-39.8h13.3c0,0,13.3-0.3,13.3,11.2c0,5.2-3.2,7.9-6.7,8.8
			C805.9,1163.7,805.6,1170.6,805.6,1170.6z M785.1,1158.8h6.7c0,0,6.6,0,6.6-5c0-5.4-6.6-5-6.6-5h-6.7V1158.8z M799,1170.4
			c0-5.4-7.2-5-7.2-5h-6.7v10h6.7C794.6,1175.5,799,1174.8,799,1170.4z"/>
		<path class="st1" d="M810,1171h6.7c0.1,3.3,2.9,5,5.8,5c3.1,0,5.8-1.9,5.8-5.1c0-3.4-3.1-5.5-5.8-5.6c-0.3,0-3.1,0-6-1.3
			c-4.2-1.9-6.5-5.5-6.5-10.2c0-7.6,6-12.2,12.5-12.2c6.9,0,12.2,4.7,12.3,11.5h-6.6c-0.1-3.3-2.7-4.8-5.7-4.8
			c-3.1,0-5.8,1.8-5.8,5.5c0,3.3,2.9,5.1,5.8,5.1c0.3,0,3.1,0,5.9,1.3c4.2,1.9,6.5,6,6.5,10.7c0,7.6-6,11.7-12.4,11.7
			C815.6,1182.5,810.1,1178.5,810,1171z"/>
		<path class="st1" d="M845.1,1178.9c0,1.9-1.6,3.5-3.6,3.5c-1.9,0-3.5-1.6-3.5-3.5c0-2,1.6-3.6,3.5-3.6
			C843.5,1175.2,845.1,1176.9,845.1,1178.9z"/>
		<path class="st1" d="M867.9,1182.6c-26.3,0-26.3-40.9,0-40.9C894.1,1141.6,894.2,1182.6,867.9,1182.6z M867.9,1148.1
			c-17.2,0-17.3,28,0,28S885.2,1148.1,867.9,1148.1z"/>
		<path class="st1" d="M905.8,1165.4h-5.4v16.6h-6.7v-39.9H907c0,0,13.3,0,13.3,11.6c0,6.4-4.1,9.3-7.7,10.6l8.2,17.7h-7.4
			L905.8,1165.4z M900.4,1158.8h6.6c0,0,6.7,0,6.7-5c0-5-6.7-5-6.7-5h-6.6V1158.8z"/>
		<path class="st1" d="M961.9,1159.4v22.7h-5.8l-0.3-3.6c-3.2,3-6.6,4.2-11.3,4.2c-10.7,0-19.1-7.5-19.1-20.5c0-11.9,9-20.5,20-20.5
			c5.5,0,10.5,2.2,14.1,5.9l-4.7,4.7c-2.4-2.4-5.8-3.9-9.4-3.9c-7.4,0-13.3,5.1-13.3,13.9c0,9.7,5.9,13.9,13.3,13.9
			c4,0,7.5-1.7,10-4.5v-6.2h-10.6v-5.9H961.9z"/>
	</g>
</g>
</svg>
