<?xml version="1.0" encoding="utf-8"?>
<!-- Generator: Adobe Illustrator 21.0.2, SVG Export Plug-In . SVG Version: 6.00 Build 0)  -->
<svg version="1.1" id="Layer_1" xmlns="http://www.w3.org/2000/svg" xmlns:xlink="http://www.w3.org/1999/xlink" x="0px" y="0px"
	 viewBox="0 0 239.4 55.6" style="enable-background:new 0 0 239.4 55.6;" xml:space="preserve">
<style type="text/css">
	.st0{fill:#004A4F;}
	.st1{enable-background:new    ;}
</style>
<title>logo</title>
<path class="st0" d="M24.1,0L0,13.9v27.8l24.1,13.9l24.1-13.9V13.9L24.1,0z M12.1,45.5c0.9-0.7,2-1.1,3.1-1.1c1.3,0,2.6,0.5,3.6,1.5
	c0.3,0.3,0.6,0.4,1,0.4c0.4,0,0.8-0.2,1-0.5c0.9-0.9,2.1-1.4,3.4-1.4c1.3,0,2.5,0.5,3.4,1.4c0.3,0.3,0.6,0.5,1.1,0.5
	c0.4,0,0.7-0.2,1-0.4c0.9-1,2.2-1.5,3.6-1.5c1.1,0,2.2,0.4,3.1,1.1l-12.1,7.1L12.1,45.5z M45.4,40l-6.7,3.9l0,0
	c-1.3-1.5-3.2-2.4-5.2-2.3c-1.4,0-2.8,0.4-4,1.2c-0.2,0.2-0.5,0.3-0.9,0.3c-0.3,0-0.7-0.1-0.9-0.3c-0.7-0.5-1.4-0.8-2.2-1V29.6h1.7
	c4.9-0.1,8.8-4,8.8-8.9c0-0.3-0.2-0.5-0.5-0.5H33c-4.5,0-8.3,3.4-8.8,7.9h-0.1v-1.8c0-4.9-4-8.9-8.9-8.9c-0.3,0-0.5,0.2-0.5,0.5l0,0
	v2.6c0,4.6,3.5,8.4,8,8.8v12.3c-0.8,0.2-1.5,0.5-2.2,1c-0.5,0.4-1.2,0.4-1.7,0c-1.2-0.8-2.6-1.3-4-1.2c-2,0-3.9,0.9-5.2,2.4V44
	l-6.9-4V15.6L24.1,3.1l21.3,12.5V40z"/>
<g class="st1">
	<path class="st0" d="M62.5,17v6.7h11.2v4.5H62.5v11.3H58v-27h18V17H62.5z"/>
</g>
<g class="st1">
	<path class="st0" d="M91.9,36.3h-9.5l-1.2,3.1h-4.9l10.8-27.8l10.8,27.8h-4.9L91.9,36.3z M83.8,32.4h6.6l-3.3-9.4L83.8,32.4z"/>
	<path class="st0" d="M109.1,28.2h-3.7v11.3h-4.5v-27h9c0,0,9,0,9,7.9c0,4.4-2.8,6.3-5.2,7.2l5.5,11.9h-5L109.1,28.2z M105.4,23.7
		h4.5c0,0,4.5,0,4.5-3.4c0-3.4-4.5-3.4-4.5-3.4h-4.5V23.7z"/>
	<path class="st0" d="M153.3,39.5h-4.5V22.9L141,39.5h-4.2l-8.2-16.9v16.9H124v-27h4.6l10.3,21l9.8-21h4.6V39.5z"/>
	<path class="st0" d="M173.8,35v4.5h-14.5v-27h4.5V35H173.8z"/>
	<path class="st0" d="M191.1,36.3h-9.5l-1.2,3.1h-4.9l10.8-27.8l10.8,27.8h-4.9L191.1,36.3z M183.1,32.4h6.6l-3.3-9.4L183.1,32.4z"
		/>
	<path class="st0" d="M218.5,31.7c0,7.4-7.6,7.7-9.4,7.7h-9v-27h9c0,0,9-0.2,9,7.6c0,3.5-2.2,5.4-4.5,5.9
		C218.7,27,218.5,31.7,218.5,31.7z M204.7,23.7h4.5c0,0,4.5,0,4.5-3.4c0-3.6-4.5-3.4-4.5-3.4h-4.5V23.7z M214,31.6
		c0-3.6-4.9-3.4-4.9-3.4h-4.5V35h4.5C211.1,35,214,34.5,214,31.6z"/>
	<path class="st0" d="M222.5,32h4.5c0.1,2.2,1.9,3.4,3.9,3.4c2.1,0,3.9-1.3,3.9-3.5c0-2.3-2.1-3.7-3.9-3.7c-0.2,0-2.1,0-4-0.9
		c-2.8-1.3-4.4-3.7-4.4-6.9c0-5.1,4.1-8.2,8.4-8.2c4.7,0,8.2,3.2,8.3,7.7h-4.5c-0.1-2.2-1.8-3.2-3.9-3.2c-2.1,0-3.9,1.2-3.9,3.7
		c0,2.2,1.9,3.4,3.9,3.4c0.2,0,2.1,0,4,0.9c2.9,1.3,4.4,4,4.4,7.2c0,5.2-4,8-8.4,8C226.3,39.7,222.6,37,222.5,32z"/>
</g>
<g class="st1">
	<path class="st0" d="M61.1,48.3c1.1,0,2,0.4,2.7,1.1c0.7,0.7,1,1.6,1,2.6c0,1.1-0.3,1.9-1,2.6c-0.7,0.7-1.6,1.1-2.7,1.1
		c-1.1,0-2-0.4-2.7-1.1c-0.7-0.7-1-1.6-1-2.6c0-1.1,0.3-1.9,1-2.6C59.1,48.6,60,48.3,61.1,48.3z M61.1,54.9c0.9,0,1.6-0.3,2.1-0.8
		c0.5-0.5,0.8-1.2,0.8-2.1c0-0.8-0.3-1.5-0.8-2.1c-0.5-0.6-1.2-0.8-2.1-0.8c-0.9,0-1.6,0.3-2.1,0.8c-0.5,0.5-0.8,1.2-0.8,2.1
		c0,0.8,0.3,1.5,0.8,2.1C59.5,54.6,60.2,54.9,61.1,54.9z"/>
	<path class="st0" d="M66.6,55.6h-0.8v-7.2H69c0.8,0,1.4,0.2,1.8,0.6c0.4,0.4,0.7,1,0.7,1.7c0,0.7-0.2,1.3-0.7,1.7
		C70.4,52.8,69.8,53,69,53h-2.4V55.6z M66.6,49.1v3.1H69c0.6,0,1-0.1,1.3-0.4s0.4-0.7,0.4-1.1s-0.1-0.9-0.4-1.1s-0.7-0.4-1.3-0.4
		H66.6z"/>
	<path class="st0" d="M73.2,49.1v2.4h4v0.8h-4v2.4h4.5v0.8h-5.3v-7.2h5.3v0.8H73.2z"/>
	<path class="st0" d="M84.9,48.3v7.2h-1l-4.5-6.1v6.1h-0.8v-7.2h1l4.5,6.1v-6.1H84.9z"/>
</g>
<g class="st1">
	<path class="st0" d="M95,55.6h-0.9l-0.9-2.1h-3.6l-0.9,2.1h-0.9l3.1-7.2h1L95,55.6z M92.9,52.7l-1.5-3.5l-1.5,3.5H92.9z"/>
</g>
<g class="st1">
	<path class="st0" d="M97.1,48.5c0.4-0.2,0.9-0.3,1.4-0.3c0.5,0,0.9,0.1,1.2,0.2c0.3,0.1,0.7,0.2,0.9,0.4c0.6,0.4,1,0.9,1.3,1.5H101
		c-0.2-0.4-0.5-0.7-0.9-0.9s-0.8-0.3-1.3-0.3s-0.9,0.1-1.3,0.2s-0.6,0.4-0.9,0.6c-0.5,0.5-0.7,1.2-0.7,2.1c0,0.8,0.2,1.5,0.7,2.1
		c0.5,0.6,1.2,0.8,2.1,0.8c0.7,0,1.3-0.2,1.8-0.6c0.5-0.4,0.8-1,0.8-1.8h-2.6v-0.7h3.4v3.9h-0.8v-1.3c-0.4,0.6-1,1-1.7,1.3
		c-0.3,0.1-0.6,0.1-1.1,0.1c-0.4,0-0.9-0.1-1.3-0.3s-0.8-0.5-1.1-0.8C95.3,53.9,95,53,95,52c0-1.1,0.3-1.9,1-2.6
		C96.3,49,96.7,48.7,97.1,48.5z"/>
	<path class="st0" d="M103.9,55.6h-0.8v-7.2h3.5c0.7,0,1.3,0.2,1.8,0.6c0.4,0.4,0.7,1,0.7,1.7c0,0.9-0.4,1.5-1.1,1.9
		c-0.2,0.1-0.4,0.2-0.6,0.2l1.9,2.9h-1l-1.8-2.8h-2.5V55.6z M103.9,52h2.5c0.8,0,1.3-0.2,1.6-0.7c0.1-0.2,0.2-0.4,0.2-0.7
		c0-0.5-0.2-0.8-0.5-1.1c-0.3-0.3-0.7-0.4-1.2-0.4h-2.6V52z"/>
	<path class="st0" d="M110.9,55.6h-0.8v-7.2h0.8V55.6z"/>
	<path class="st0" d="M115.6,54.9c0.5,0,1-0.1,1.4-0.4c0.4-0.3,0.7-0.6,0.9-1.1h0.9c-0.2,0.7-0.6,1.2-1.2,1.6
		c-0.6,0.4-1.3,0.6-2.1,0.6c-1.1,0-1.9-0.4-2.6-1.1c-0.6-0.7-0.9-1.6-0.9-2.6s0.3-1.9,0.9-2.6c0.7-0.7,1.5-1.1,2.6-1.1
		c0.8,0,1.5,0.2,2.1,0.6c0.6,0.4,1,0.9,1.2,1.6h-0.9c-0.2-0.4-0.5-0.8-0.9-1.1s-0.8-0.4-1.4-0.4c-0.5,0-0.9,0.1-1.3,0.2
		c-0.3,0.1-0.6,0.4-0.9,0.6c-0.5,0.5-0.7,1.2-0.7,2.1c0,0.8,0.2,1.5,0.7,2.1C113.9,54.6,114.6,54.9,115.6,54.9z"/>
	<path class="st0" d="M125.7,48.3v4.1c0,1-0.3,1.7-0.9,2.3s-1.3,0.9-2.2,0.9c-0.9,0-1.6-0.3-2.2-0.9c-0.6-0.6-0.9-1.4-0.9-2.3v-4.1
		h0.8v4.2c0,0.8,0.2,1.4,0.7,1.8c0.4,0.4,0.9,0.6,1.6,0.6s1.2-0.2,1.6-0.6c0.5-0.4,0.7-1,0.7-1.8v-4.2H125.7z"/>
</g>
<g class="st1">
	<path class="st0" d="M128.1,48.3v6.5h4v0.8h-4.8v-7.2H128.1z"/>
</g>
<g class="st1">
	<path class="st0" d="M136.8,49.1h-2.5v6.5h-0.8v-6.5h-2.5v-0.8h5.9V49.1z"/>
	<path class="st0" d="M143.6,48.3v4.1c0,1-0.3,1.7-0.9,2.3s-1.3,0.9-2.2,0.9c-0.9,0-1.6-0.3-2.2-0.9c-0.6-0.6-0.9-1.4-0.9-2.3v-4.1
		h0.8v4.2c0,0.8,0.2,1.4,0.7,1.8c0.4,0.4,0.9,0.6,1.6,0.6s1.2-0.2,1.6-0.6c0.5-0.4,0.7-1,0.7-1.8v-4.2H143.6z"/>
	<path class="st0" d="M145.8,55.6H145v-7.2h3.5c0.7,0,1.3,0.2,1.8,0.6c0.4,0.4,0.7,1,0.7,1.7c0,0.9-0.4,1.5-1.1,1.9
		c-0.2,0.1-0.4,0.2-0.6,0.2l1.9,2.9h-1l-1.8-2.8h-2.5V55.6z M145.8,52h2.5c0.8,0,1.3-0.2,1.6-0.7c0.1-0.2,0.2-0.4,0.2-0.7
		c0-0.5-0.2-0.8-0.5-1.1c-0.3-0.3-0.7-0.4-1.2-0.4h-2.6V52z"/>
	<path class="st0" d="M152.8,49.1v2.4h4v0.8h-4v2.4h4.5v0.8H152v-7.2h5.3v0.8H152.8z"/>
	<path class="st0" d="M166.6,48.3v7.2h-1l-4.5-6.1v6.1h-0.8v-7.2h1l4.5,6.1v-6.1H166.6z"/>
	<path class="st0" d="M168.9,49.1v2.4h4v0.8h-4v2.4h4.5v0.8h-5.3v-7.2h5.3v0.8H168.9z"/>
	<path class="st0" d="M179.5,49.1H177v6.5h-0.8v-6.5h-2.5v-0.8h5.9V49.1z"/>
</g>
<g class="st1">
	<path class="st0" d="M183,55.6h-0.9l-2.3-7.2h0.9l1.9,6.1l1.9-6.1h0.9l1.9,6.1l1.9-6.1h0.9l-2.3,7.2H187l-2-6.1L183,55.6z"/>
</g>
<g class="st1">
	<path class="st0" d="M194,48.3c1.1,0,2,0.4,2.7,1.1c0.7,0.7,1,1.6,1,2.6c0,1.1-0.3,1.9-1,2.6c-0.7,0.7-1.6,1.1-2.7,1.1
		s-2-0.4-2.7-1.1c-0.7-0.7-1-1.6-1-2.6c0-1.1,0.3-1.9,1-2.6C192,48.6,192.9,48.3,194,48.3z M194,54.9c0.9,0,1.6-0.3,2.1-0.8
		c0.5-0.5,0.8-1.2,0.8-2.1c0-0.8-0.3-1.5-0.8-2.1c-0.5-0.6-1.2-0.8-2.1-0.8s-1.6,0.3-2.1,0.8c-0.5,0.5-0.8,1.2-0.8,2.1
		c0,0.8,0.3,1.5,0.8,2.1C192.4,54.6,193.1,54.9,194,54.9z"/>
	<path class="st0" d="M199.5,55.6h-0.8v-7.2h3.5c0.7,0,1.3,0.2,1.8,0.6c0.4,0.4,0.7,1,0.7,1.7c0,0.9-0.4,1.5-1.1,1.9
		c-0.2,0.1-0.4,0.2-0.6,0.2l1.9,2.9h-1l-1.8-2.8h-2.5V55.6z M199.5,52h2.5c0.8,0,1.3-0.2,1.6-0.7c0.1-0.2,0.2-0.4,0.2-0.7
		c0-0.5-0.2-0.8-0.5-1.1c-0.3-0.3-0.7-0.4-1.2-0.4h-2.6V52z"/>
	<path class="st0" d="M208.6,51.3l3.3,4.3h-1l-2.8-3.8l-1.5,1.4v2.4h-0.8v-7.2h0.8v3.8l4-3.8h1.2L208.6,51.3z"/>
</g>
</svg>
