<svg id="Layer_1" data-name="Layer 1" xmlns="http://www.w3.org/2000/svg" viewBox="0 0 239.39 55.59"><defs><style>.cls-1,.cls-2,.cls-4{fill:#004a4f;}.cls-2{font-size:38.54px;font-family:BaronNeue, Baron Neue;}.cls-3{letter-spacing:-0.02em;}.cls-4{font-size:10.95px;font-family:Questrial-Regular, Questrial;letter-spacing:-0.03em;}.cls-5{letter-spacing:-0.04em;}.cls-6{letter-spacing:-0.13em;}.cls-7{letter-spacing:-0.03em;}</style></defs><title>logo</title><path class="cls-1" d="M24.07,0,0,13.9V41.69l24.07,13.9,24.07-13.9V13.9Zm-12,45.46a5,5,0,0,1,3.09-1.07,4.89,4.89,0,0,1,3.58,1.45,1.4,1.4,0,0,0,1,.41,1.25,1.25,0,0,0,1-.46,4.65,4.65,0,0,1,3.36-1.44,4.52,4.52,0,0,1,3.35,1.4,1.37,1.37,0,0,0,1.06.5,1.35,1.35,0,0,0,1-.43,5,5,0,0,1,3.58-1.47,5.09,5.09,0,0,1,3.1,1.07l-12.1,7.07ZM45.41,40l-6.72,3.93,0,0a6.89,6.89,0,0,0-5.2-2.35,7,7,0,0,0-4,1.21,1.35,1.35,0,0,1-.86.3,1.37,1.37,0,0,1-.91-.35,6.1,6.1,0,0,0-2.2-1V29.64h1.7A8.88,8.88,0,0,0,36,20.76a.51.51,0,0,0-.51-.51H33a8.88,8.88,0,0,0-8.83,7.9h-.06V26.35a8.88,8.88,0,0,0-8.88-8.88.51.51,0,0,0-.51.51v2.58a8.88,8.88,0,0,0,8,8.84V41.74a6,6,0,0,0-2.16,1,1.33,1.33,0,0,1-1.69,0,6.89,6.89,0,0,0-4-1.24,7.11,7.11,0,0,0-5.24,2.39l0,.06L2.73,40V15.58L24.07,3.12,45.41,15.58Z"/><text class="cls-2" transform="translate(54.98 39.46)"><tspan class="cls-3">F</tspan><tspan x="21.39" y="0">ArMLABS</tspan></text><text class="cls-4" transform="translate(57 55.59)">OPEN <tspan class="cls-5" x="30.75" y="0">A</tspan><tspan x="37.59" y="0">GRICU</tspan><tspan class="cls-6" x="69.39" y="0">L</tspan><tspan x="73.78" y="0">TURE NET</tspan><tspan class="cls-7" x="122.75" y="0">W</tspan><tspan x="132.89" y="0">ORK</tspan></text></svg>